G04 Layer: TopSilkscreenLayer*
G04 EasyEDA v6.4.31, 2022-02-13 10:25:38*
G04 2d099072909c4d34a2351a6f0d7baa55,7002fc846d7841648ca5f2fac868b397,10*
G04 Gerber Generator version 0.2*
G04 Scale: 100 percent, Rotated: No, Reflected: No *
G04 Dimensions in millimeters *
G04 leading zeros omitted , absolute positions ,4 integer and 5 decimal *
%FSLAX45Y45*%
%MOMM*%

%ADD10C,0.2540*%
%ADD27C,0.1524*%
%ADD28C,0.2000*%
%ADD29C,0.2032*%
%ADD30C,0.2030*%
%ADD31C,0.4000*%
%ADD32C,0.7000*%

%LPD*%
G36*
X3179826Y9271000D02*
G01*
X3172917Y9270695D01*
X3166364Y9269780D01*
X3160217Y9268256D01*
X3154476Y9266174D01*
X3149193Y9263481D01*
X3144469Y9260281D01*
X3140354Y9256522D01*
X3136849Y9252204D01*
X3134055Y9247428D01*
X3132023Y9242145D01*
X3130753Y9236354D01*
X3130296Y9230106D01*
X3130600Y9224721D01*
X3131515Y9219692D01*
X3133039Y9215069D01*
X3135122Y9210751D01*
X3137712Y9206738D01*
X3140811Y9203029D01*
X3144367Y9199575D01*
X3148431Y9196374D01*
X3152902Y9193428D01*
X3157778Y9190634D01*
X3168650Y9185656D01*
X3183940Y9179153D01*
X3189732Y9176258D01*
X3194558Y9173210D01*
X3198418Y9169958D01*
X3201365Y9166402D01*
X3203397Y9162440D01*
X3204565Y9157970D01*
X3204972Y9152890D01*
X3204311Y9146540D01*
X3202432Y9140952D01*
X3199434Y9136227D01*
X3195269Y9132265D01*
X3190138Y9129217D01*
X3184093Y9126982D01*
X3177133Y9125661D01*
X3169412Y9125204D01*
X3162706Y9125508D01*
X3156762Y9126423D01*
X3151327Y9128099D01*
X3146044Y9130538D01*
X3140456Y9158478D01*
X3129026Y9158478D01*
X3127502Y9127236D01*
X3131566Y9124848D01*
X3136188Y9122562D01*
X3141218Y9120581D01*
X3146653Y9118803D01*
X3152394Y9117330D01*
X3158388Y9116212D01*
X3164586Y9115552D01*
X3170936Y9115298D01*
X3178403Y9115602D01*
X3185464Y9116618D01*
X3192068Y9118193D01*
X3198164Y9120428D01*
X3203702Y9123222D01*
X3208629Y9126626D01*
X3212896Y9130538D01*
X3216503Y9134957D01*
X3219399Y9139936D01*
X3221532Y9145422D01*
X3222802Y9151315D01*
X3223260Y9157716D01*
X3223006Y9162745D01*
X3222294Y9167469D01*
X3221075Y9171889D01*
X3219348Y9176054D01*
X3217011Y9179915D01*
X3214065Y9183624D01*
X3210560Y9187129D01*
X3206343Y9190431D01*
X3201517Y9193631D01*
X3195929Y9196730D01*
X3189681Y9199727D01*
X3168040Y9208719D01*
X3163062Y9211411D01*
X3158744Y9214408D01*
X3155137Y9217761D01*
X3152343Y9221470D01*
X3150260Y9225534D01*
X3148990Y9230106D01*
X3148584Y9235186D01*
X3149193Y9241180D01*
X3150920Y9246463D01*
X3153714Y9250934D01*
X3157423Y9254642D01*
X3161944Y9257538D01*
X3167227Y9259671D01*
X3173120Y9260941D01*
X3179572Y9261348D01*
X3184499Y9261094D01*
X3189071Y9260281D01*
X3193389Y9258858D01*
X3197606Y9256776D01*
X3203448Y9230106D01*
X3214878Y9230106D01*
X3216402Y9259316D01*
X3212592Y9261856D01*
X3208629Y9264142D01*
X3204413Y9266123D01*
X3199993Y9267850D01*
X3195370Y9269171D01*
X3190494Y9270187D01*
X3185312Y9270796D01*
G37*
G36*
X3394710Y9271000D02*
G01*
X3388106Y9270746D01*
X3381705Y9270034D01*
X3375558Y9268866D01*
X3369665Y9267240D01*
X3364026Y9265158D01*
X3358642Y9262719D01*
X3353562Y9259824D01*
X3348736Y9256572D01*
X3344265Y9252966D01*
X3340100Y9249003D01*
X3336290Y9244685D01*
X3332784Y9240062D01*
X3329686Y9235135D01*
X3326942Y9229902D01*
X3324555Y9224365D01*
X3322574Y9218625D01*
X3321050Y9212630D01*
X3319932Y9206382D01*
X3319272Y9199930D01*
X3319018Y9193276D01*
X3319221Y9186519D01*
X3319932Y9179966D01*
X3320999Y9173667D01*
X3322523Y9167622D01*
X3324504Y9161780D01*
X3326790Y9156293D01*
X3329533Y9151010D01*
X3332632Y9146082D01*
X3336036Y9141460D01*
X3339846Y9137142D01*
X3343960Y9133179D01*
X3348431Y9129572D01*
X3353206Y9126321D01*
X3358235Y9123476D01*
X3363620Y9121038D01*
X3369208Y9119006D01*
X3375101Y9117431D01*
X3381248Y9116263D01*
X3387598Y9115552D01*
X3394201Y9115298D01*
X3400806Y9115501D01*
X3407156Y9116161D01*
X3413302Y9117228D01*
X3419297Y9118752D01*
X3425139Y9120581D01*
X3430930Y9122816D01*
X3436670Y9125356D01*
X3442462Y9128252D01*
X3442665Y9159798D01*
X3443224Y9180576D01*
X3456432Y9181846D01*
X3456432Y9189466D01*
X3398520Y9189466D01*
X3398520Y9181846D01*
X3422142Y9180068D01*
X3422548Y9153956D01*
X3422650Y9129522D01*
X3416452Y9127540D01*
X3410356Y9126220D01*
X3404108Y9125458D01*
X3397504Y9125204D01*
X3391255Y9125508D01*
X3385362Y9126372D01*
X3379724Y9127845D01*
X3374440Y9129826D01*
X3369513Y9132417D01*
X3364941Y9135465D01*
X3360724Y9139123D01*
X3356914Y9143238D01*
X3353511Y9147860D01*
X3350514Y9152991D01*
X3347923Y9158579D01*
X3345789Y9164624D01*
X3344113Y9171127D01*
X3342894Y9178086D01*
X3342132Y9185503D01*
X3341878Y9193276D01*
X3342132Y9201150D01*
X3342944Y9208617D01*
X3344214Y9215577D01*
X3345992Y9222130D01*
X3348228Y9228175D01*
X3350869Y9233814D01*
X3353968Y9238894D01*
X3357422Y9243517D01*
X3361283Y9247632D01*
X3365500Y9251188D01*
X3370021Y9254236D01*
X3374898Y9256776D01*
X3380028Y9258757D01*
X3385413Y9260179D01*
X3391103Y9261043D01*
X3396996Y9261348D01*
X3403803Y9260941D01*
X3410254Y9259773D01*
X3416300Y9257690D01*
X3422142Y9254744D01*
X3427729Y9227058D01*
X3439668Y9227058D01*
X3439160Y9260078D01*
X3434537Y9262668D01*
X3429711Y9264904D01*
X3424682Y9266783D01*
X3419398Y9268307D01*
X3413810Y9269476D01*
X3407867Y9270339D01*
X3401517Y9270847D01*
G37*
G36*
X2699766Y9268460D02*
G01*
X2668643Y9176766D01*
X2677922Y9176766D01*
X2700528Y9245854D01*
X2723896Y9176766D01*
X2668643Y9176766D01*
X2652522Y9129268D01*
X2634488Y9126220D01*
X2634488Y9118600D01*
X2684018Y9118600D01*
X2684018Y9126220D01*
X2662174Y9129268D01*
X2675128Y9167876D01*
X2726690Y9167876D01*
X2739644Y9129014D01*
X2717800Y9126220D01*
X2717800Y9118600D01*
X2778252Y9118600D01*
X2778252Y9126220D01*
X2760726Y9128252D01*
X2712720Y9268460D01*
G37*
G36*
X2156206Y9267444D02*
G01*
X2156206Y9259824D01*
X2177034Y9257538D01*
X2177288Y9220758D01*
X2177034Y9128506D01*
X2156206Y9126220D01*
X2156206Y9118600D01*
X2218944Y9118600D01*
X2218944Y9126220D01*
X2198116Y9128760D01*
X2197658Y9158071D01*
X2197658Y9220809D01*
X2198116Y9257538D01*
X2218944Y9259824D01*
X2218944Y9267444D01*
G37*
G36*
X2237994Y9267444D02*
G01*
X2235962Y9227820D01*
X2247900Y9227820D01*
X2254758Y9257792D01*
X2319274Y9257792D01*
X2233422Y9126220D01*
X2233422Y9118600D01*
X2345182Y9118600D01*
X2346706Y9158732D01*
X2334768Y9158732D01*
X2327656Y9128252D01*
X2256536Y9128252D01*
X2342134Y9259824D01*
X2342134Y9267444D01*
G37*
G36*
X2361438Y9267444D02*
G01*
X2361438Y9259824D01*
X2382266Y9257538D01*
X2382520Y9220758D01*
X2382266Y9128506D01*
X2361438Y9126220D01*
X2361438Y9118600D01*
X2475992Y9118600D01*
X2477262Y9158224D01*
X2466340Y9158224D01*
X2460498Y9128252D01*
X2403348Y9128252D01*
X2402890Y9158274D01*
X2402840Y9189974D01*
X2436622Y9189974D01*
X2439670Y9168384D01*
X2448814Y9168384D01*
X2448814Y9220708D01*
X2439670Y9220708D01*
X2436368Y9198864D01*
X2402840Y9198864D01*
X2402941Y9235948D01*
X2403348Y9257792D01*
X2456180Y9257792D01*
X2462022Y9228328D01*
X2472944Y9228328D01*
X2471928Y9267444D01*
G37*
G36*
X2495550Y9267444D02*
G01*
X2495550Y9259824D01*
X2516378Y9257538D01*
X2516632Y9196578D01*
X2536952Y9196578D01*
X2537053Y9236506D01*
X2537460Y9258808D01*
X2556764Y9258808D01*
X2564942Y9258300D01*
X2571953Y9256826D01*
X2577795Y9254337D01*
X2582570Y9250984D01*
X2586177Y9246666D01*
X2588768Y9241536D01*
X2590292Y9235592D01*
X2590800Y9228836D01*
X2590241Y9222130D01*
X2588564Y9215983D01*
X2585770Y9210497D01*
X2581859Y9205772D01*
X2576880Y9201912D01*
X2570784Y9199016D01*
X2563571Y9197187D01*
X2555240Y9196578D01*
X2516632Y9196578D01*
X2516378Y9128506D01*
X2495550Y9126220D01*
X2495550Y9118600D01*
X2558288Y9118600D01*
X2558288Y9126220D01*
X2537460Y9128760D01*
X2537002Y9157817D01*
X2536952Y9188196D01*
X2548890Y9188196D01*
X2555341Y9187992D01*
X2560777Y9187281D01*
X2565400Y9185960D01*
X2569260Y9183878D01*
X2572410Y9180931D01*
X2575052Y9177070D01*
X2577287Y9172041D01*
X2579116Y9165844D01*
X2588260Y9130538D01*
X2590901Y9123934D01*
X2595270Y9119514D01*
X2601772Y9117076D01*
X2610866Y9116314D01*
X2615793Y9116466D01*
X2620213Y9116872D01*
X2624175Y9117584D01*
X2627630Y9118600D01*
X2627630Y9126220D01*
X2610358Y9127998D01*
X2599944Y9162796D01*
X2597912Y9168841D01*
X2595626Y9174073D01*
X2593035Y9178493D01*
X2590088Y9182252D01*
X2586685Y9185300D01*
X2582824Y9187738D01*
X2578455Y9189618D01*
X2573528Y9190990D01*
X2579624Y9192310D01*
X2585161Y9194038D01*
X2590190Y9196222D01*
X2594711Y9198762D01*
X2598674Y9201658D01*
X2602077Y9204858D01*
X2605024Y9208312D01*
X2607411Y9212021D01*
X2609240Y9215932D01*
X2610561Y9219996D01*
X2611374Y9224264D01*
X2611628Y9228582D01*
X2611221Y9234525D01*
X2610002Y9240012D01*
X2608021Y9245041D01*
X2605227Y9249613D01*
X2601722Y9253677D01*
X2597505Y9257233D01*
X2592578Y9260332D01*
X2586939Y9262821D01*
X2580640Y9264853D01*
X2573731Y9266275D01*
X2566162Y9267139D01*
X2558034Y9267444D01*
G37*
G36*
X2842260Y9267444D02*
G01*
X2842260Y9259824D01*
X2863088Y9257538D01*
X2863342Y9220606D01*
X2863342Y9173921D01*
X2883662Y9173921D01*
X2883763Y9236354D01*
X2884170Y9258808D01*
X2903474Y9258808D01*
X2909620Y9258554D01*
X2915462Y9257741D01*
X2920898Y9256420D01*
X2925978Y9254540D01*
X2930702Y9252204D01*
X2935020Y9249308D01*
X2938983Y9245904D01*
X2942539Y9241993D01*
X2945739Y9237624D01*
X2948482Y9232696D01*
X2950870Y9227312D01*
X2952800Y9221419D01*
X2954324Y9215018D01*
X2955442Y9208160D01*
X2956102Y9200845D01*
X2956306Y9193022D01*
X2956102Y9185452D01*
X2955442Y9178340D01*
X2954324Y9171584D01*
X2952750Y9165336D01*
X2950819Y9159494D01*
X2948381Y9154109D01*
X2945587Y9149181D01*
X2942336Y9144711D01*
X2938678Y9140748D01*
X2934614Y9137294D01*
X2930144Y9134348D01*
X2925216Y9131909D01*
X2919933Y9129979D01*
X2914243Y9128607D01*
X2908147Y9127794D01*
X2901696Y9127490D01*
X2884170Y9127490D01*
X2883662Y9173921D01*
X2863342Y9173921D01*
X2863088Y9128506D01*
X2842260Y9126220D01*
X2842260Y9118600D01*
X2902966Y9118600D01*
X2909519Y9118803D01*
X2915920Y9119412D01*
X2922066Y9120378D01*
X2928010Y9121749D01*
X2933649Y9123527D01*
X2939084Y9125661D01*
X2944215Y9128150D01*
X2949092Y9131046D01*
X2953613Y9134297D01*
X2957880Y9137904D01*
X2961741Y9141866D01*
X2965297Y9146184D01*
X2968498Y9150858D01*
X2971292Y9155887D01*
X2973730Y9161272D01*
X2975711Y9166961D01*
X2977337Y9172956D01*
X2978454Y9179356D01*
X2979166Y9186011D01*
X2979420Y9193022D01*
X2979216Y9200083D01*
X2978556Y9206788D01*
X2977489Y9213138D01*
X2976067Y9219184D01*
X2974238Y9224924D01*
X2972003Y9230258D01*
X2969412Y9235287D01*
X2966466Y9239961D01*
X2963164Y9244279D01*
X2959506Y9248241D01*
X2955544Y9251848D01*
X2951276Y9255048D01*
X2946704Y9257944D01*
X2941828Y9260433D01*
X2936646Y9262567D01*
X2931261Y9264294D01*
X2925572Y9265666D01*
X2919628Y9266631D01*
X2913430Y9267240D01*
X2907030Y9267444D01*
G37*
G36*
X2993898Y9267444D02*
G01*
X2993898Y9259824D01*
X3014472Y9257538D01*
X3014929Y9228124D01*
X3014929Y9165234D01*
X3014472Y9128506D01*
X2993898Y9126220D01*
X2993898Y9118600D01*
X3108452Y9118600D01*
X3109722Y9158224D01*
X3098800Y9158224D01*
X3092704Y9128252D01*
X3035808Y9128252D01*
X3035350Y9158274D01*
X3035300Y9189974D01*
X3069082Y9189974D01*
X3072130Y9168384D01*
X3081274Y9168384D01*
X3081274Y9220708D01*
X3072130Y9220708D01*
X3068828Y9198864D01*
X3035300Y9198864D01*
X3035401Y9235948D01*
X3035808Y9257792D01*
X3088640Y9257792D01*
X3094482Y9228328D01*
X3105404Y9228328D01*
X3104134Y9267444D01*
G37*
G36*
X3240786Y9267444D02*
G01*
X3240786Y9259824D01*
X3261360Y9257538D01*
X3261817Y9228124D01*
X3261817Y9165234D01*
X3261360Y9128506D01*
X3240786Y9126220D01*
X3240786Y9118600D01*
X3303270Y9118600D01*
X3303270Y9126220D01*
X3282696Y9128760D01*
X3282238Y9158071D01*
X3282238Y9220809D01*
X3282696Y9257538D01*
X3303270Y9259824D01*
X3303270Y9267444D01*
G37*
G36*
X3469640Y9267444D02*
G01*
X3469640Y9259824D01*
X3485387Y9257792D01*
X3487674Y9254998D01*
X3487165Y9129014D01*
X3468624Y9126220D01*
X3468624Y9118600D01*
X3521201Y9118600D01*
X3521201Y9126220D01*
X3497326Y9129268D01*
X3497072Y9242044D01*
X3587750Y9117076D01*
X3595624Y9117076D01*
X3595878Y9257284D01*
X3614674Y9259824D01*
X3614674Y9267444D01*
X3562096Y9267444D01*
X3562096Y9259824D01*
X3585718Y9257030D01*
X3586226Y9153652D01*
X3503929Y9267444D01*
G37*
G36*
X2147316Y9030970D02*
G01*
X2142693Y9026499D01*
X2134260Y9017304D01*
X2126742Y9007906D01*
X2120239Y8998204D01*
X2117344Y8993225D01*
X2112264Y8983014D01*
X2110079Y8977782D01*
X2106422Y8967063D01*
X2104898Y8961577D01*
X2102662Y8950248D01*
X2101850Y8944457D01*
X2100935Y8932468D01*
X2100935Y8920226D01*
X2101850Y8908389D01*
X2103678Y8896908D01*
X2104898Y8891320D01*
X2108149Y8880398D01*
X2110079Y8875064D01*
X2112264Y8869832D01*
X2117344Y8859621D01*
X2120239Y8854643D01*
X2126742Y8844940D01*
X2134260Y8835491D01*
X2142693Y8826398D01*
X2147316Y8821928D01*
X2152142Y8825484D01*
X2147417Y8832392D01*
X2139188Y8845651D01*
X2135632Y8852001D01*
X2132482Y8858250D01*
X2129688Y8864396D01*
X2125065Y8876487D01*
X2121712Y8888476D01*
X2119477Y8900617D01*
X2118258Y8913164D01*
X2117852Y8926322D01*
X2118207Y8939530D01*
X2118715Y8945880D01*
X2120442Y8958173D01*
X2121662Y8964218D01*
X2123186Y8970213D01*
X2127097Y8982151D01*
X2132380Y8994343D01*
X2135530Y9000540D01*
X2142998Y9013444D01*
X2152142Y9027160D01*
G37*
G36*
X3625596Y9030970D02*
G01*
X3620770Y9027160D01*
X3629761Y9013545D01*
X3637178Y9000642D01*
X3640328Y8994444D01*
X3643122Y8988298D01*
X3647744Y8976258D01*
X3649573Y8970264D01*
X3651097Y8964269D01*
X3652367Y8958224D01*
X3653383Y8952128D01*
X3654145Y8945880D01*
X3654958Y8933027D01*
X3654958Y8919667D01*
X3654145Y8906865D01*
X3653434Y8900718D01*
X3651199Y8888628D01*
X3649624Y8882634D01*
X3647795Y8876690D01*
X3643223Y8864600D01*
X3640429Y8858504D01*
X3637279Y8852255D01*
X3629812Y8839301D01*
X3620770Y8825484D01*
X3625596Y8821928D01*
X3634486Y8830919D01*
X3642410Y8840165D01*
X3649370Y8849766D01*
X3655364Y8859621D01*
X3660444Y8869832D01*
X3662629Y8875064D01*
X3666286Y8885783D01*
X3667760Y8891320D01*
X3669995Y8902598D01*
X3670808Y8908389D01*
X3671722Y8920226D01*
X3671722Y8932468D01*
X3670808Y8944457D01*
X3668979Y8955938D01*
X3667760Y8961577D01*
X3666286Y8967063D01*
X3662629Y8977782D01*
X3660444Y8983014D01*
X3655364Y8993225D01*
X3649370Y9003080D01*
X3646017Y9007906D01*
X3638550Y9017304D01*
X3630168Y9026499D01*
G37*
G36*
X2330704Y9016492D02*
G01*
X2325217Y9016238D01*
X2319934Y9015577D01*
X2314803Y9014409D01*
X2309977Y9012783D01*
X2305405Y9010650D01*
X2301189Y9008110D01*
X2297379Y9005062D01*
X2294026Y9001607D01*
X2291181Y8997645D01*
X2288844Y8993225D01*
X2287117Y8988298D01*
X2286000Y8982964D01*
X2287981Y8980170D01*
X2290470Y8978036D01*
X2293416Y8976614D01*
X2296668Y8976106D01*
X2300681Y8976868D01*
X2303983Y8979255D01*
X2306726Y8983624D01*
X2308860Y8990076D01*
X2313432Y9006332D01*
X2319883Y9007500D01*
X2325370Y9007856D01*
X2331364Y9007297D01*
X2336698Y9005570D01*
X2341321Y9002826D01*
X2345232Y8999118D01*
X2348382Y8994546D01*
X2350668Y8989110D01*
X2352090Y8982964D01*
X2352548Y8976106D01*
X2352344Y8971686D01*
X2351684Y8967216D01*
X2350617Y8962796D01*
X2349093Y8958275D01*
X2347163Y8953652D01*
X2344775Y8948978D01*
X2341930Y8944102D01*
X2338628Y8939072D01*
X2330653Y8928404D01*
X2320798Y8916670D01*
X2287016Y8878316D01*
X2287016Y8864600D01*
X2378456Y8864600D01*
X2378456Y8881872D01*
X2301240Y8881872D01*
X2327402Y8908796D01*
X2342286Y8924594D01*
X2353767Y8937701D01*
X2358390Y8943441D01*
X2362250Y8948775D01*
X2365400Y8953804D01*
X2367889Y8958580D01*
X2369820Y8963202D01*
X2371090Y8967774D01*
X2371852Y8972397D01*
X2372106Y8977122D01*
X2371852Y8982760D01*
X2371039Y8988044D01*
X2369667Y8993022D01*
X2367737Y8997594D01*
X2365248Y9001760D01*
X2362149Y9005468D01*
X2358491Y9008719D01*
X2354173Y9011412D01*
X2349296Y9013596D01*
X2343759Y9015171D01*
X2337562Y9016136D01*
G37*
G36*
X2555240Y9016492D02*
G01*
X2550769Y9016238D01*
X2546350Y9015476D01*
X2542032Y9014206D01*
X2537815Y9012428D01*
X2533751Y9010040D01*
X2529890Y9007043D01*
X2526233Y9003487D01*
X2522778Y8999270D01*
X2519629Y8994394D01*
X2516835Y8988856D01*
X2514346Y8982608D01*
X2512212Y8975648D01*
X2510536Y8967978D01*
X2509266Y8959545D01*
X2508504Y8950299D01*
X2508250Y8940292D01*
X2528062Y8940292D01*
X2528316Y8952839D01*
X2529078Y8963812D01*
X2530297Y8973312D01*
X2531922Y8981440D01*
X2533954Y8988298D01*
X2536291Y8993936D01*
X2538984Y8998508D01*
X2541879Y9002014D01*
X2544978Y9004604D01*
X2548280Y9006332D01*
X2551734Y9007297D01*
X2555240Y9007602D01*
X2558643Y9007297D01*
X2561945Y9006332D01*
X2565146Y9004604D01*
X2568194Y9002014D01*
X2570988Y8998508D01*
X2573578Y8993936D01*
X2575864Y8988298D01*
X2577846Y8981440D01*
X2579471Y8973312D01*
X2580640Y8963812D01*
X2581402Y8952839D01*
X2581656Y8940292D01*
X2581402Y8927287D01*
X2580640Y8915857D01*
X2579471Y8906002D01*
X2577846Y8897518D01*
X2575864Y8890355D01*
X2573578Y8884462D01*
X2570988Y8879738D01*
X2568194Y8876080D01*
X2565146Y8873337D01*
X2561945Y8871559D01*
X2558643Y8870492D01*
X2555240Y8870188D01*
X2552598Y8870340D01*
X2550007Y8870899D01*
X2547467Y8871915D01*
X2544978Y8873337D01*
X2542641Y8875268D01*
X2540406Y8877706D01*
X2538272Y8880754D01*
X2536342Y8884361D01*
X2534513Y8888679D01*
X2532888Y8893657D01*
X2531516Y8899398D01*
X2530297Y8905849D01*
X2529332Y8913164D01*
X2528671Y8921292D01*
X2528214Y8930335D01*
X2528062Y8940292D01*
X2508250Y8940292D01*
X2508504Y8929928D01*
X2509266Y8920378D01*
X2510536Y8911640D01*
X2512212Y8903716D01*
X2514346Y8896553D01*
X2516835Y8890101D01*
X2519629Y8884412D01*
X2522778Y8879433D01*
X2526233Y8875115D01*
X2529890Y8871458D01*
X2533751Y8868410D01*
X2537815Y8865971D01*
X2542032Y8864092D01*
X2546350Y8862822D01*
X2550769Y8862060D01*
X2555240Y8861806D01*
X2559608Y8862060D01*
X2563926Y8862822D01*
X2568194Y8864092D01*
X2572308Y8865971D01*
X2576322Y8868410D01*
X2580132Y8871458D01*
X2583738Y8875115D01*
X2587142Y8879433D01*
X2590190Y8884412D01*
X2592984Y8890101D01*
X2595473Y8896553D01*
X2597505Y8903716D01*
X2599182Y8911640D01*
X2600452Y8920378D01*
X2601214Y8929928D01*
X2601468Y8940292D01*
X2601214Y8950299D01*
X2600452Y8959545D01*
X2599182Y8967978D01*
X2597505Y8975648D01*
X2595473Y8982608D01*
X2592984Y8988856D01*
X2590190Y8994394D01*
X2587142Y8999270D01*
X2583738Y9003487D01*
X2580132Y9007043D01*
X2576322Y9010040D01*
X2572308Y9012428D01*
X2568194Y9014206D01*
X2563926Y9015476D01*
X2559608Y9016238D01*
G37*
G36*
X2778506Y9016492D02*
G01*
X2772816Y9016187D01*
X2767380Y9015323D01*
X2762250Y9013901D01*
X2757424Y9011970D01*
X2753004Y9009481D01*
X2748991Y9006535D01*
X2745486Y9003131D01*
X2742488Y8999270D01*
X2740101Y8994952D01*
X2738323Y8990228D01*
X2737205Y8985148D01*
X2737113Y8983726D01*
X2753868Y8983726D01*
X2754376Y8989009D01*
X2755798Y8993733D01*
X2758084Y8997848D01*
X2761081Y9001302D01*
X2764739Y9004096D01*
X2768854Y9006179D01*
X2773426Y9007398D01*
X2778252Y9007856D01*
X2783332Y9007297D01*
X2787802Y9005722D01*
X2791663Y9003284D01*
X2794863Y9000083D01*
X2797454Y8996222D01*
X2799334Y8991904D01*
X2800451Y8987180D01*
X2800858Y8982202D01*
X2800654Y8976918D01*
X2799943Y8972042D01*
X2798724Y8967470D01*
X2796895Y8963202D01*
X2794508Y8959189D01*
X2791409Y8955278D01*
X2787650Y8951468D01*
X2783078Y8947658D01*
X2775102Y8951976D01*
X2768650Y8956344D01*
X2763570Y8960764D01*
X2759710Y8965234D01*
X2756966Y8969756D01*
X2755138Y8974328D01*
X2754172Y8979001D01*
X2753868Y8983726D01*
X2737113Y8983726D01*
X2736850Y8979662D01*
X2737256Y8973362D01*
X2738424Y8967317D01*
X2740456Y8961628D01*
X2743352Y8956243D01*
X2747162Y8951163D01*
X2751937Y8946388D01*
X2757728Y8941917D01*
X2764536Y8937752D01*
X2757017Y8933840D01*
X2750515Y8929725D01*
X2744978Y8925306D01*
X2740406Y8920632D01*
X2736850Y8915654D01*
X2734310Y8910269D01*
X2732786Y8904528D01*
X2732445Y8900414D01*
X2749804Y8900414D01*
X2750159Y8905951D01*
X2751124Y8910929D01*
X2752801Y8915501D01*
X2755188Y8919667D01*
X2758186Y8923578D01*
X2761894Y8927236D01*
X2766314Y8930741D01*
X2771394Y8934196D01*
X2780385Y8929725D01*
X2787802Y8925356D01*
X2793746Y8921038D01*
X2798368Y8916720D01*
X2801721Y8912352D01*
X2804007Y8907830D01*
X2805277Y8903106D01*
X2805684Y8898128D01*
X2805176Y8892133D01*
X2803702Y8886698D01*
X2801366Y8881922D01*
X2798165Y8877858D01*
X2794254Y8874607D01*
X2789631Y8872220D01*
X2784348Y8870696D01*
X2778506Y8870188D01*
X2772410Y8870746D01*
X2766822Y8872372D01*
X2761945Y8875014D01*
X2757779Y8878519D01*
X2754376Y8882938D01*
X2751886Y8888069D01*
X2750362Y8893962D01*
X2749804Y8900414D01*
X2732445Y8900414D01*
X2732278Y8898382D01*
X2732633Y8892692D01*
X2733802Y8887460D01*
X2735580Y8882684D01*
X2738069Y8878417D01*
X2741218Y8874556D01*
X2744927Y8871254D01*
X2749245Y8868410D01*
X2754071Y8866022D01*
X2759405Y8864193D01*
X2765196Y8862872D01*
X2771394Y8862060D01*
X2777998Y8861806D01*
X2784398Y8862110D01*
X2790444Y8863076D01*
X2796133Y8864650D01*
X2801416Y8866835D01*
X2806242Y8869527D01*
X2810560Y8872728D01*
X2814320Y8876436D01*
X2817469Y8880602D01*
X2820060Y8885174D01*
X2821889Y8890152D01*
X2823057Y8895486D01*
X2823464Y8901176D01*
X2822956Y8908237D01*
X2821432Y8914688D01*
X2818892Y8920581D01*
X2815285Y8926017D01*
X2810611Y8930995D01*
X2804820Y8935669D01*
X2797962Y8940088D01*
X2789936Y8944356D01*
X2797048Y8948928D01*
X2802940Y8953601D01*
X2807614Y8958326D01*
X2811221Y8963152D01*
X2813812Y8967978D01*
X2815590Y8972702D01*
X2816555Y8977376D01*
X2816860Y8981948D01*
X2816555Y8986824D01*
X2815640Y8991498D01*
X2814167Y8995816D01*
X2812186Y8999829D01*
X2809595Y9003487D01*
X2806547Y9006738D01*
X2802991Y9009583D01*
X2798927Y9011970D01*
X2794457Y9013901D01*
X2789529Y9015323D01*
X2784246Y9016187D01*
G37*
G36*
X2928620Y9016492D02*
G01*
X2921863Y9015526D01*
X2915361Y9014256D01*
X2909112Y9012631D01*
X2903118Y9010751D01*
X2897428Y9008567D01*
X2891942Y9006078D01*
X2886760Y9003334D01*
X2881884Y9000286D01*
X2877210Y8997035D01*
X2872892Y8993530D01*
X2868828Y8989822D01*
X2865018Y8985910D01*
X2861513Y8981744D01*
X2858312Y8977376D01*
X2855417Y8972854D01*
X2852775Y8968181D01*
X2850438Y8963304D01*
X2848406Y8958275D01*
X2846730Y8953093D01*
X2845308Y8947810D01*
X2844190Y8942425D01*
X2843428Y8936888D01*
X2842842Y8928354D01*
X2862326Y8928354D01*
X2862326Y8932926D01*
X2869082Y8937904D01*
X2876296Y8941206D01*
X2883662Y8943035D01*
X2891028Y8943594D01*
X2896666Y8943086D01*
X2901797Y8941460D01*
X2906318Y8938768D01*
X2910128Y8934907D01*
X2913227Y8929928D01*
X2915513Y8923782D01*
X2916936Y8916416D01*
X2917444Y8907780D01*
X2916936Y8898940D01*
X2915513Y8891320D01*
X2913278Y8884818D01*
X2910179Y8879535D01*
X2906420Y8875471D01*
X2902000Y8872524D01*
X2897022Y8870746D01*
X2891536Y8870188D01*
X2887116Y8870594D01*
X2883001Y8871813D01*
X2879242Y8873845D01*
X2875838Y8876690D01*
X2872790Y8880348D01*
X2870047Y8884818D01*
X2867761Y8890050D01*
X2865831Y8896096D01*
X2864307Y8902954D01*
X2863240Y8910624D01*
X2862529Y8919108D01*
X2862326Y8928354D01*
X2842842Y8928354D01*
X2842971Y8918244D01*
X2843631Y8911285D01*
X2844698Y8904782D01*
X2846120Y8898686D01*
X2848000Y8892997D01*
X2850184Y8887764D01*
X2852775Y8882938D01*
X2855772Y8878620D01*
X2859074Y8874760D01*
X2862681Y8871407D01*
X2866644Y8868511D01*
X2870962Y8866124D01*
X2875534Y8864244D01*
X2880410Y8862923D01*
X2885592Y8862060D01*
X2891028Y8861806D01*
X2897530Y8862161D01*
X2903677Y8863279D01*
X2909366Y8865057D01*
X2914650Y8867597D01*
X2919476Y8870746D01*
X2923743Y8874607D01*
X2927502Y8879078D01*
X2930652Y8884208D01*
X2933141Y8890000D01*
X2934970Y8896350D01*
X2936087Y8903309D01*
X2936494Y8910828D01*
X2936138Y8917482D01*
X2935173Y8923680D01*
X2933598Y8929370D01*
X2931363Y8934602D01*
X2928620Y8939326D01*
X2925368Y8943492D01*
X2921558Y8947048D01*
X2917291Y8950045D01*
X2912618Y8952382D01*
X2907487Y8954109D01*
X2901950Y8955176D01*
X2896108Y8955532D01*
X2891586Y8955278D01*
X2887065Y8954566D01*
X2882696Y8953449D01*
X2878429Y8951823D01*
X2874264Y8949740D01*
X2870301Y8947302D01*
X2866440Y8944356D01*
X2862834Y8941054D01*
X2863748Y8947708D01*
X2865069Y8954058D01*
X2866796Y8960104D01*
X2868930Y8965844D01*
X2871470Y8971280D01*
X2874467Y8976410D01*
X2877870Y8981236D01*
X2881731Y8985758D01*
X2886100Y8989974D01*
X2890875Y8993835D01*
X2896108Y8997442D01*
X2901848Y9000693D01*
X2908046Y9003639D01*
X2914751Y9006281D01*
X2921914Y9008618D01*
X2929636Y9010650D01*
G37*
G36*
X3151632Y9016492D02*
G01*
X3144875Y9015526D01*
X3138373Y9014256D01*
X3132124Y9012631D01*
X3126130Y9010751D01*
X3120440Y9008567D01*
X3114954Y9006078D01*
X3109772Y9003334D01*
X3104896Y9000286D01*
X3100222Y8997035D01*
X3095904Y8993530D01*
X3091840Y8989822D01*
X3088030Y8985910D01*
X3084525Y8981744D01*
X3081324Y8977376D01*
X3078429Y8972854D01*
X3075787Y8968181D01*
X3073450Y8963304D01*
X3071418Y8958275D01*
X3069742Y8953093D01*
X3068320Y8947810D01*
X3067202Y8942425D01*
X3066440Y8936888D01*
X3065854Y8928354D01*
X3085338Y8928354D01*
X3085338Y8932926D01*
X3092196Y8937904D01*
X3099409Y8941206D01*
X3106724Y8943035D01*
X3114040Y8943594D01*
X3119678Y8943086D01*
X3124809Y8941460D01*
X3129330Y8938768D01*
X3133140Y8934907D01*
X3136239Y8929928D01*
X3138525Y8923782D01*
X3139948Y8916416D01*
X3140456Y8907780D01*
X3139948Y8898940D01*
X3138576Y8891320D01*
X3136290Y8884818D01*
X3133242Y8879535D01*
X3129432Y8875471D01*
X3125012Y8872524D01*
X3120034Y8870746D01*
X3114548Y8870188D01*
X3110128Y8870594D01*
X3106013Y8871813D01*
X3102254Y8873845D01*
X3098850Y8876690D01*
X3095802Y8880348D01*
X3093059Y8884818D01*
X3090773Y8890050D01*
X3088843Y8896096D01*
X3087319Y8902954D01*
X3086252Y8910624D01*
X3085541Y8919108D01*
X3085338Y8928354D01*
X3065854Y8928354D01*
X3065983Y8918244D01*
X3066643Y8911285D01*
X3067710Y8904782D01*
X3069132Y8898686D01*
X3071012Y8892997D01*
X3073196Y8887764D01*
X3075787Y8882938D01*
X3078784Y8878620D01*
X3082086Y8874760D01*
X3085693Y8871407D01*
X3089656Y8868511D01*
X3093974Y8866124D01*
X3098546Y8864244D01*
X3103422Y8862923D01*
X3108604Y8862060D01*
X3114040Y8861806D01*
X3120593Y8862161D01*
X3126740Y8863279D01*
X3132480Y8865057D01*
X3137814Y8867597D01*
X3142589Y8870746D01*
X3146856Y8874607D01*
X3150565Y8879078D01*
X3153714Y8884208D01*
X3156204Y8890000D01*
X3158032Y8896350D01*
X3159150Y8903309D01*
X3159506Y8910828D01*
X3159150Y8917482D01*
X3158185Y8923680D01*
X3156610Y8929370D01*
X3154375Y8934602D01*
X3151632Y8939326D01*
X3148380Y8943492D01*
X3144570Y8947048D01*
X3140303Y8950045D01*
X3135630Y8952382D01*
X3130499Y8954109D01*
X3124962Y8955176D01*
X3119120Y8955532D01*
X3110077Y8954566D01*
X3101441Y8951823D01*
X3093415Y8947302D01*
X3086100Y8941054D01*
X3087014Y8947708D01*
X3088335Y8954058D01*
X3090062Y8960104D01*
X3092196Y8965844D01*
X3094736Y8971280D01*
X3097733Y8976410D01*
X3101136Y8981236D01*
X3104997Y8985758D01*
X3109366Y8989974D01*
X3114141Y8993835D01*
X3119374Y8997442D01*
X3125114Y9000693D01*
X3131312Y9003639D01*
X3138017Y9006281D01*
X3145180Y9008618D01*
X3152902Y9010650D01*
G37*
G36*
X3224530Y9016492D02*
G01*
X3220059Y9016238D01*
X3215640Y9015476D01*
X3211322Y9014206D01*
X3207105Y9012428D01*
X3203041Y9010040D01*
X3199180Y9007043D01*
X3195523Y9003487D01*
X3192068Y8999270D01*
X3188919Y8994394D01*
X3186125Y8988856D01*
X3183636Y8982608D01*
X3181502Y8975648D01*
X3179826Y8967978D01*
X3178556Y8959545D01*
X3177794Y8950299D01*
X3177540Y8940292D01*
X3197352Y8940292D01*
X3197606Y8952839D01*
X3198368Y8963812D01*
X3199587Y8973312D01*
X3201212Y8981440D01*
X3203244Y8988298D01*
X3205581Y8993936D01*
X3208274Y8998508D01*
X3211169Y9002014D01*
X3214268Y9004604D01*
X3217570Y9006332D01*
X3221024Y9007297D01*
X3224530Y9007602D01*
X3227933Y9007297D01*
X3231235Y9006332D01*
X3234436Y9004604D01*
X3237484Y9002014D01*
X3240278Y8998508D01*
X3242868Y8993936D01*
X3245154Y8988298D01*
X3247136Y8981440D01*
X3248761Y8973312D01*
X3249930Y8963812D01*
X3250692Y8952839D01*
X3250946Y8940292D01*
X3250692Y8927287D01*
X3249930Y8915857D01*
X3248761Y8906002D01*
X3247136Y8897518D01*
X3245154Y8890355D01*
X3242868Y8884462D01*
X3240278Y8879738D01*
X3237484Y8876080D01*
X3234436Y8873337D01*
X3231235Y8871559D01*
X3227933Y8870492D01*
X3224530Y8870188D01*
X3221888Y8870340D01*
X3219297Y8870899D01*
X3216757Y8871915D01*
X3214268Y8873337D01*
X3211931Y8875268D01*
X3209696Y8877706D01*
X3207562Y8880754D01*
X3205581Y8884361D01*
X3203803Y8888679D01*
X3202178Y8893657D01*
X3200806Y8899398D01*
X3199587Y8905849D01*
X3198622Y8913164D01*
X3197961Y8921292D01*
X3197504Y8930335D01*
X3197352Y8940292D01*
X3177540Y8940292D01*
X3177794Y8929928D01*
X3178556Y8920378D01*
X3179826Y8911640D01*
X3181502Y8903716D01*
X3183636Y8896553D01*
X3186125Y8890101D01*
X3188919Y8884412D01*
X3192068Y8879433D01*
X3195523Y8875115D01*
X3199180Y8871458D01*
X3203041Y8868410D01*
X3207105Y8865971D01*
X3211322Y8864092D01*
X3215640Y8862822D01*
X3220059Y8862060D01*
X3224530Y8861806D01*
X3228898Y8862060D01*
X3233216Y8862822D01*
X3237484Y8864092D01*
X3241649Y8865971D01*
X3245662Y8868410D01*
X3249523Y8871458D01*
X3253130Y8875115D01*
X3256534Y8879433D01*
X3259632Y8884412D01*
X3262477Y8890101D01*
X3264915Y8896553D01*
X3267049Y8903716D01*
X3268726Y8911640D01*
X3269996Y8920378D01*
X3270758Y8929928D01*
X3271012Y8940292D01*
X3270758Y8950299D01*
X3269996Y8959545D01*
X3268726Y8967978D01*
X3267049Y8975648D01*
X3264915Y8982608D01*
X3262477Y8988856D01*
X3259632Y8994394D01*
X3256534Y8999270D01*
X3253130Y9003487D01*
X3249523Y9007043D01*
X3245662Y9010040D01*
X3241649Y9012428D01*
X3237484Y9014206D01*
X3233216Y9015476D01*
X3228898Y9016238D01*
G37*
G36*
X3374644Y9016492D02*
G01*
X3367887Y9015526D01*
X3361436Y9014256D01*
X3355238Y9012631D01*
X3349244Y9010751D01*
X3343554Y9008567D01*
X3338118Y9006078D01*
X3332937Y9003334D01*
X3328060Y9000286D01*
X3323437Y8997035D01*
X3319119Y8993530D01*
X3315055Y8989822D01*
X3311245Y8985910D01*
X3307791Y8981744D01*
X3304590Y8977376D01*
X3301644Y8972854D01*
X3299053Y8968181D01*
X3296716Y8963304D01*
X3294684Y8958275D01*
X3293008Y8953093D01*
X3291586Y8947810D01*
X3290468Y8942425D01*
X3289706Y8936888D01*
X3289120Y8928354D01*
X3308604Y8928354D01*
X3308604Y8932926D01*
X3315360Y8937904D01*
X3322523Y8941206D01*
X3329838Y8943035D01*
X3337051Y8943594D01*
X3342792Y8943086D01*
X3347923Y8941460D01*
X3352444Y8938768D01*
X3356254Y8934907D01*
X3359353Y8929928D01*
X3361588Y8923782D01*
X3363010Y8916416D01*
X3363468Y8907780D01*
X3363010Y8898940D01*
X3361588Y8891320D01*
X3359353Y8884818D01*
X3356356Y8879535D01*
X3352647Y8875471D01*
X3348228Y8872524D01*
X3343300Y8870746D01*
X3337814Y8870188D01*
X3333394Y8870594D01*
X3329279Y8871813D01*
X3325520Y8873845D01*
X3322116Y8876690D01*
X3319068Y8880348D01*
X3316376Y8884818D01*
X3314039Y8890050D01*
X3312109Y8896096D01*
X3310585Y8902954D01*
X3309518Y8910624D01*
X3308807Y8919108D01*
X3308604Y8928354D01*
X3289120Y8928354D01*
X3289249Y8918244D01*
X3289909Y8911285D01*
X3290976Y8904782D01*
X3292398Y8898686D01*
X3294227Y8892997D01*
X3296462Y8887764D01*
X3299053Y8882938D01*
X3302000Y8878620D01*
X3305301Y8874760D01*
X3308908Y8871407D01*
X3312871Y8868511D01*
X3317138Y8866124D01*
X3321659Y8864244D01*
X3326536Y8862923D01*
X3331667Y8862060D01*
X3337051Y8861806D01*
X3343605Y8862161D01*
X3349802Y8863279D01*
X3355543Y8865057D01*
X3360877Y8867597D01*
X3365703Y8870746D01*
X3370021Y8874607D01*
X3373729Y8879078D01*
X3376879Y8884208D01*
X3379419Y8890000D01*
X3381248Y8896350D01*
X3382365Y8903309D01*
X3382772Y8910828D01*
X3382416Y8917482D01*
X3381451Y8923680D01*
X3379876Y8929370D01*
X3377641Y8934602D01*
X3374898Y8939326D01*
X3371596Y8943492D01*
X3367786Y8947048D01*
X3363518Y8950045D01*
X3358794Y8952382D01*
X3353612Y8954109D01*
X3348075Y8955176D01*
X3342132Y8955532D01*
X3333140Y8954566D01*
X3324555Y8951823D01*
X3316528Y8947302D01*
X3309112Y8941054D01*
X3310026Y8947708D01*
X3311347Y8954058D01*
X3313074Y8960104D01*
X3315208Y8965844D01*
X3317748Y8971280D01*
X3320745Y8976410D01*
X3324148Y8981236D01*
X3328009Y8985758D01*
X3332378Y8989974D01*
X3337153Y8993835D01*
X3342386Y8997442D01*
X3348126Y9000693D01*
X3354324Y9003639D01*
X3361029Y9006281D01*
X3368192Y9008618D01*
X3375914Y9010650D01*
G37*
G36*
X3559556Y9016492D02*
G01*
X3553815Y9016187D01*
X3548379Y9015323D01*
X3543198Y9013901D01*
X3538372Y9011970D01*
X3533952Y9009481D01*
X3529990Y9006535D01*
X3526485Y9003131D01*
X3523487Y8999270D01*
X3521100Y8994952D01*
X3519373Y8990228D01*
X3518255Y8985148D01*
X3518163Y8983726D01*
X3534664Y8983726D01*
X3535172Y8989009D01*
X3536645Y8993733D01*
X3538982Y8997848D01*
X3541979Y9001302D01*
X3545636Y9004096D01*
X3549751Y9006179D01*
X3554272Y9007398D01*
X3559048Y9007856D01*
X3564178Y9007297D01*
X3568750Y9005722D01*
X3572662Y9003284D01*
X3575913Y9000083D01*
X3578504Y8996222D01*
X3580384Y8991904D01*
X3581501Y8987180D01*
X3581908Y8982202D01*
X3581654Y8976918D01*
X3580942Y8972042D01*
X3579672Y8967470D01*
X3577844Y8963202D01*
X3575405Y8959189D01*
X3572256Y8955278D01*
X3568446Y8951468D01*
X3563874Y8947658D01*
X3555898Y8951976D01*
X3549446Y8956344D01*
X3544366Y8960764D01*
X3540506Y8965234D01*
X3537762Y8969756D01*
X3535934Y8974328D01*
X3534968Y8979001D01*
X3534664Y8983726D01*
X3518163Y8983726D01*
X3517900Y8979662D01*
X3518306Y8973362D01*
X3519474Y8967317D01*
X3521506Y8961628D01*
X3524402Y8956243D01*
X3528161Y8951163D01*
X3532886Y8946388D01*
X3538626Y8941917D01*
X3545332Y8937752D01*
X3537813Y8933840D01*
X3531311Y8929725D01*
X3525774Y8925306D01*
X3521201Y8920632D01*
X3517646Y8915654D01*
X3515106Y8910269D01*
X3513582Y8904528D01*
X3513241Y8900414D01*
X3530854Y8900414D01*
X3531158Y8905951D01*
X3532174Y8910929D01*
X3533800Y8915501D01*
X3536137Y8919667D01*
X3539134Y8923578D01*
X3542842Y8927236D01*
X3547262Y8930741D01*
X3552444Y8934196D01*
X3561435Y8929725D01*
X3568801Y8925356D01*
X3574694Y8921038D01*
X3579266Y8916720D01*
X3582619Y8912352D01*
X3584854Y8907830D01*
X3586073Y8903106D01*
X3586479Y8898128D01*
X3585972Y8892133D01*
X3584549Y8886698D01*
X3582263Y8881922D01*
X3579114Y8877858D01*
X3575202Y8874607D01*
X3570630Y8872220D01*
X3565398Y8870696D01*
X3559556Y8870188D01*
X3553358Y8870746D01*
X3547770Y8872372D01*
X3542893Y8875014D01*
X3538728Y8878519D01*
X3535375Y8882938D01*
X3532886Y8888069D01*
X3531362Y8893962D01*
X3530854Y8900414D01*
X3513241Y8900414D01*
X3513074Y8898382D01*
X3513429Y8892692D01*
X3514598Y8887460D01*
X3516376Y8882684D01*
X3518865Y8878417D01*
X3522014Y8874556D01*
X3525723Y8871254D01*
X3530041Y8868410D01*
X3534867Y8866022D01*
X3540201Y8864193D01*
X3545992Y8862872D01*
X3552190Y8862060D01*
X3558794Y8861806D01*
X3565194Y8862110D01*
X3571240Y8863076D01*
X3576929Y8864650D01*
X3582212Y8866835D01*
X3587038Y8869527D01*
X3591356Y8872728D01*
X3595115Y8876436D01*
X3598265Y8880602D01*
X3600856Y8885174D01*
X3602685Y8890152D01*
X3603853Y8895486D01*
X3604260Y8901176D01*
X3603751Y8908237D01*
X3602278Y8914688D01*
X3599738Y8920581D01*
X3596182Y8926017D01*
X3591509Y8930995D01*
X3585718Y8935669D01*
X3578809Y8940088D01*
X3570732Y8944356D01*
X3577844Y8948928D01*
X3583736Y8953601D01*
X3588410Y8958326D01*
X3592017Y8963152D01*
X3594608Y8967978D01*
X3596386Y8972702D01*
X3597351Y8977376D01*
X3597656Y8981948D01*
X3597351Y8986824D01*
X3596436Y8991498D01*
X3595014Y8995816D01*
X3592982Y8999829D01*
X3590442Y9003487D01*
X3587394Y9006738D01*
X3583838Y9009583D01*
X3579825Y9011970D01*
X3575354Y9013901D01*
X3570478Y9015323D01*
X3565194Y9016187D01*
G37*
G36*
X3463544Y9015730D02*
G01*
X3399358Y8924036D01*
X3408934Y8924036D01*
X3457956Y8994902D01*
X3457956Y8924036D01*
X3399358Y8924036D01*
X3397758Y8921750D01*
X3397758Y8910828D01*
X3457956Y8910828D01*
X3457956Y8864600D01*
X3475990Y8864600D01*
X3475990Y8910828D01*
X3499612Y8910828D01*
X3499612Y8924036D01*
X3475990Y8924036D01*
X3475990Y9015730D01*
G37*
G36*
X2412746Y9013444D02*
G01*
X2408174Y8944102D01*
X2413762Y8942324D01*
X2419146Y8943644D01*
X2424531Y8944610D01*
X2429865Y8945168D01*
X2435098Y8945372D01*
X2440279Y8945118D01*
X2445105Y8944305D01*
X2449576Y8942933D01*
X2453690Y8941104D01*
X2457348Y8938717D01*
X2460650Y8935821D01*
X2463444Y8932468D01*
X2465781Y8928658D01*
X2467660Y8924391D01*
X2469032Y8919616D01*
X2469845Y8914434D01*
X2470150Y8908796D01*
X2469896Y8903106D01*
X2469184Y8897823D01*
X2467965Y8892895D01*
X2466238Y8888425D01*
X2464054Y8884310D01*
X2461463Y8880754D01*
X2458364Y8877604D01*
X2454859Y8875014D01*
X2450846Y8872931D01*
X2446477Y8871407D01*
X2441600Y8870492D01*
X2436368Y8870188D01*
X2432812Y8870340D01*
X2425852Y8871356D01*
X2422398Y8872220D01*
X2416556Y8892489D01*
X2414168Y8896756D01*
X2410968Y8898991D01*
X2406650Y8899652D01*
X2403246Y8899194D01*
X2400300Y8897924D01*
X2397912Y8895689D01*
X2396236Y8892540D01*
X2398318Y8885377D01*
X2401366Y8879179D01*
X2405278Y8873896D01*
X2410104Y8869578D01*
X2415743Y8866174D01*
X2422245Y8863736D01*
X2429560Y8862314D01*
X2437638Y8861806D01*
X2443429Y8862009D01*
X2448915Y8862720D01*
X2454148Y8863787D01*
X2459075Y8865311D01*
X2463647Y8867241D01*
X2467965Y8869527D01*
X2471877Y8872220D01*
X2475484Y8875217D01*
X2478684Y8878620D01*
X2481529Y8882329D01*
X2483967Y8886342D01*
X2485999Y8890609D01*
X2487625Y8895232D01*
X2488742Y8900109D01*
X2489454Y8905189D01*
X2489708Y8910574D01*
X2489301Y8917736D01*
X2488082Y8924340D01*
X2486152Y8930436D01*
X2483510Y8935923D01*
X2480157Y8940800D01*
X2476195Y8945067D01*
X2471623Y8948775D01*
X2466441Y8951772D01*
X2460752Y8954211D01*
X2454605Y8955887D01*
X2448001Y8956954D01*
X2440940Y8957310D01*
X2434996Y8957106D01*
X2429408Y8956497D01*
X2423922Y8955481D01*
X2418588Y8954008D01*
X2421382Y8996172D01*
X2485644Y8996172D01*
X2485644Y9013444D01*
G37*
G36*
X2621788Y9013444D02*
G01*
X2621788Y8996172D01*
X2700020Y8996172D01*
X2640584Y8866632D01*
X2642616Y8864600D01*
X2659634Y8864600D01*
X2712212Y9002522D01*
X2712212Y9013444D01*
G37*
G36*
X2970530Y9013444D02*
G01*
X2965958Y8944102D01*
X2971546Y8942324D01*
X2976930Y8943644D01*
X2982315Y8944610D01*
X2987649Y8945168D01*
X2992882Y8945372D01*
X2998063Y8945118D01*
X3002889Y8944305D01*
X3007360Y8942933D01*
X3011474Y8941104D01*
X3015132Y8938717D01*
X3018434Y8935821D01*
X3021228Y8932468D01*
X3023565Y8928658D01*
X3025444Y8924391D01*
X3026816Y8919616D01*
X3027629Y8914434D01*
X3027934Y8908796D01*
X3027680Y8903106D01*
X3026968Y8897823D01*
X3025749Y8892895D01*
X3024022Y8888425D01*
X3021838Y8884310D01*
X3019247Y8880754D01*
X3016148Y8877604D01*
X3012643Y8875014D01*
X3008630Y8872931D01*
X3004261Y8871407D01*
X2999384Y8870492D01*
X2994152Y8870188D01*
X2990596Y8870340D01*
X2983636Y8871356D01*
X2980182Y8872220D01*
X2974340Y8892489D01*
X2971952Y8896756D01*
X2968752Y8898991D01*
X2964434Y8899652D01*
X2961030Y8899194D01*
X2958084Y8897924D01*
X2955696Y8895689D01*
X2954020Y8892540D01*
X2956102Y8885377D01*
X2959150Y8879179D01*
X2963062Y8873896D01*
X2967837Y8869578D01*
X2973527Y8866174D01*
X2980029Y8863736D01*
X2987344Y8862314D01*
X2995422Y8861806D01*
X3001213Y8862009D01*
X3006699Y8862720D01*
X3011932Y8863787D01*
X3016859Y8865311D01*
X3021431Y8867241D01*
X3025749Y8869527D01*
X3029661Y8872220D01*
X3033268Y8875217D01*
X3036468Y8878620D01*
X3039313Y8882329D01*
X3041751Y8886342D01*
X3043783Y8890609D01*
X3045409Y8895232D01*
X3046526Y8900109D01*
X3047238Y8905189D01*
X3047492Y8910574D01*
X3047085Y8917736D01*
X3045866Y8924340D01*
X3043936Y8930436D01*
X3041294Y8935923D01*
X3037941Y8940800D01*
X3033979Y8945067D01*
X3029407Y8948775D01*
X3024225Y8951772D01*
X3018536Y8954211D01*
X3012389Y8955887D01*
X3005785Y8956954D01*
X2998724Y8957310D01*
X2992780Y8957106D01*
X2987141Y8956497D01*
X2981706Y8955481D01*
X2976372Y8954008D01*
X2979166Y8996172D01*
X3043428Y8996172D01*
X3043428Y9013444D01*
G37*
G36*
X2211324Y8992870D02*
G01*
X2211324Y8943340D01*
X2164588Y8943340D01*
X2164588Y8932672D01*
X2211324Y8932672D01*
X2211324Y8882380D01*
X2223008Y8882380D01*
X2223008Y8932672D01*
X2269490Y8932672D01*
X2269490Y8943340D01*
X2223008Y8943340D01*
X2223008Y8992870D01*
G37*
G36*
X1230122Y6502400D02*
G01*
X1223264Y6502095D01*
X1216761Y6501180D01*
X1210614Y6499656D01*
X1204874Y6497574D01*
X1199591Y6494881D01*
X1194866Y6491681D01*
X1190752Y6487922D01*
X1187246Y6483604D01*
X1184402Y6478828D01*
X1182319Y6473545D01*
X1181049Y6467754D01*
X1180592Y6461506D01*
X1180896Y6456121D01*
X1181811Y6451092D01*
X1183335Y6446469D01*
X1185418Y6442151D01*
X1188008Y6438138D01*
X1191107Y6434429D01*
X1194663Y6430975D01*
X1198727Y6427774D01*
X1203198Y6424828D01*
X1208074Y6422034D01*
X1218946Y6417056D01*
X1234236Y6410553D01*
X1240028Y6407658D01*
X1244854Y6404610D01*
X1248714Y6401358D01*
X1251661Y6397802D01*
X1253693Y6393840D01*
X1254861Y6389370D01*
X1255268Y6384290D01*
X1254607Y6377940D01*
X1252728Y6372352D01*
X1249730Y6367627D01*
X1245565Y6363665D01*
X1240434Y6360617D01*
X1234389Y6358382D01*
X1227429Y6357061D01*
X1219708Y6356604D01*
X1213104Y6356908D01*
X1207160Y6357823D01*
X1201674Y6359499D01*
X1196340Y6361938D01*
X1190752Y6389878D01*
X1179322Y6389878D01*
X1178052Y6358636D01*
X1182116Y6356248D01*
X1186738Y6353962D01*
X1191768Y6351981D01*
X1197152Y6350203D01*
X1202893Y6348730D01*
X1208836Y6347612D01*
X1214983Y6346952D01*
X1221232Y6346698D01*
X1228750Y6347002D01*
X1235862Y6348018D01*
X1242466Y6349593D01*
X1248562Y6351828D01*
X1254099Y6354622D01*
X1259027Y6358026D01*
X1263294Y6361938D01*
X1266901Y6366357D01*
X1269746Y6371336D01*
X1271828Y6376822D01*
X1273098Y6382715D01*
X1273556Y6389116D01*
X1273302Y6394145D01*
X1272590Y6398869D01*
X1271371Y6403289D01*
X1269644Y6407454D01*
X1267307Y6411315D01*
X1264361Y6415024D01*
X1260856Y6418529D01*
X1256639Y6421831D01*
X1251813Y6425031D01*
X1246225Y6428130D01*
X1239977Y6431127D01*
X1218336Y6440119D01*
X1213358Y6442811D01*
X1209040Y6445808D01*
X1205433Y6449161D01*
X1202639Y6452870D01*
X1200556Y6456934D01*
X1199286Y6461506D01*
X1198880Y6466586D01*
X1199489Y6472580D01*
X1201216Y6477863D01*
X1204010Y6482334D01*
X1207719Y6486042D01*
X1212240Y6488938D01*
X1217523Y6491071D01*
X1223416Y6492341D01*
X1229868Y6492748D01*
X1234897Y6492494D01*
X1239469Y6491681D01*
X1243838Y6490258D01*
X1248156Y6488176D01*
X1253744Y6461506D01*
X1265428Y6461506D01*
X1266698Y6490716D01*
X1262989Y6493256D01*
X1259027Y6495542D01*
X1254810Y6497523D01*
X1250391Y6499250D01*
X1245717Y6500571D01*
X1240790Y6501587D01*
X1235608Y6502196D01*
G37*
G36*
X1676146Y6502400D02*
G01*
X1669288Y6502095D01*
X1662785Y6501180D01*
X1656638Y6499656D01*
X1650898Y6497574D01*
X1645615Y6494881D01*
X1640890Y6491681D01*
X1636776Y6487922D01*
X1633270Y6483604D01*
X1630426Y6478828D01*
X1628343Y6473545D01*
X1627073Y6467754D01*
X1626616Y6461506D01*
X1626920Y6456121D01*
X1627835Y6451092D01*
X1629359Y6446469D01*
X1631442Y6442151D01*
X1634032Y6438138D01*
X1637131Y6434429D01*
X1640687Y6430975D01*
X1644751Y6427774D01*
X1649222Y6424828D01*
X1654098Y6422034D01*
X1664970Y6417056D01*
X1680260Y6410553D01*
X1686052Y6407658D01*
X1690878Y6404610D01*
X1694738Y6401358D01*
X1697685Y6397802D01*
X1699717Y6393840D01*
X1700885Y6389370D01*
X1701292Y6384290D01*
X1700631Y6377940D01*
X1698752Y6372352D01*
X1695754Y6367627D01*
X1691589Y6363665D01*
X1686458Y6360617D01*
X1680413Y6358382D01*
X1673453Y6357061D01*
X1665732Y6356604D01*
X1659128Y6356908D01*
X1653184Y6357823D01*
X1647698Y6359499D01*
X1642364Y6361938D01*
X1636776Y6389878D01*
X1625346Y6389878D01*
X1624076Y6358636D01*
X1628139Y6356248D01*
X1632762Y6353962D01*
X1637792Y6351981D01*
X1643176Y6350203D01*
X1648917Y6348730D01*
X1654860Y6347612D01*
X1661007Y6346952D01*
X1667256Y6346698D01*
X1674774Y6347002D01*
X1681886Y6348018D01*
X1688490Y6349593D01*
X1694586Y6351828D01*
X1700123Y6354622D01*
X1705051Y6358026D01*
X1709318Y6361938D01*
X1712925Y6366357D01*
X1715770Y6371336D01*
X1717852Y6376822D01*
X1719122Y6382715D01*
X1719580Y6389116D01*
X1719325Y6394145D01*
X1718614Y6398869D01*
X1717395Y6403289D01*
X1715668Y6407454D01*
X1713331Y6411315D01*
X1710385Y6415024D01*
X1706880Y6418529D01*
X1702663Y6421831D01*
X1697837Y6425031D01*
X1692249Y6428130D01*
X1686001Y6431127D01*
X1664360Y6440119D01*
X1659382Y6442811D01*
X1655064Y6445808D01*
X1651457Y6449161D01*
X1648663Y6452870D01*
X1646580Y6456934D01*
X1645310Y6461506D01*
X1644904Y6466586D01*
X1645513Y6472580D01*
X1647240Y6477863D01*
X1650034Y6482334D01*
X1653743Y6486042D01*
X1658264Y6488938D01*
X1663547Y6491071D01*
X1669440Y6492341D01*
X1675892Y6492748D01*
X1680921Y6492494D01*
X1685493Y6491681D01*
X1689862Y6490258D01*
X1694180Y6488176D01*
X1699768Y6461506D01*
X1711452Y6461506D01*
X1712722Y6490716D01*
X1709013Y6493256D01*
X1705051Y6495542D01*
X1700834Y6497523D01*
X1696415Y6499250D01*
X1691741Y6500571D01*
X1686814Y6501587D01*
X1681632Y6502196D01*
G37*
G36*
X1289812Y6498844D02*
G01*
X1289812Y6491224D01*
X1310132Y6488684D01*
X1309878Y6360668D01*
X1289812Y6357620D01*
X1289812Y6350000D01*
X1339596Y6350000D01*
X1339596Y6357620D01*
X1320292Y6360668D01*
X1320241Y6432499D01*
X1319022Y6477508D01*
X1371092Y6350000D01*
X1380490Y6350000D01*
X1430782Y6478016D01*
X1430477Y6389014D01*
X1430020Y6359906D01*
X1410716Y6357620D01*
X1410716Y6350000D01*
X1471422Y6350000D01*
X1471422Y6357620D01*
X1450848Y6359906D01*
X1450441Y6382105D01*
X1450340Y6444742D01*
X1450543Y6474358D01*
X1450848Y6488938D01*
X1471676Y6491224D01*
X1471676Y6498844D01*
X1428750Y6498844D01*
X1380490Y6375400D01*
X1330452Y6498844D01*
G37*
G36*
X1491742Y6498844D02*
G01*
X1491742Y6491224D01*
X1512316Y6488938D01*
X1512773Y6459524D01*
X1512824Y6418580D01*
X1533144Y6418580D01*
X1533245Y6467754D01*
X1533652Y6490208D01*
X1547876Y6490208D01*
X1554175Y6489954D01*
X1559915Y6489141D01*
X1565046Y6487871D01*
X1569618Y6486093D01*
X1573631Y6483807D01*
X1577086Y6481013D01*
X1579981Y6477812D01*
X1582369Y6474104D01*
X1584147Y6469938D01*
X1585468Y6465366D01*
X1586230Y6460337D01*
X1586484Y6454902D01*
X1586230Y6449669D01*
X1585518Y6444691D01*
X1584299Y6440119D01*
X1582572Y6435902D01*
X1580235Y6432042D01*
X1577390Y6428638D01*
X1573987Y6425692D01*
X1569923Y6423202D01*
X1565249Y6421221D01*
X1559966Y6419748D01*
X1554022Y6418884D01*
X1547368Y6418580D01*
X1512824Y6418580D01*
X1512722Y6381902D01*
X1512316Y6359906D01*
X1491742Y6357620D01*
X1491742Y6350000D01*
X1554734Y6350000D01*
X1554734Y6357620D01*
X1533652Y6360160D01*
X1533245Y6378854D01*
X1533144Y6409436D01*
X1544828Y6409436D01*
X1552956Y6409690D01*
X1560423Y6410350D01*
X1567281Y6411518D01*
X1573580Y6413042D01*
X1579219Y6414973D01*
X1584350Y6417259D01*
X1588922Y6419900D01*
X1592935Y6422847D01*
X1596440Y6426047D01*
X1599387Y6429552D01*
X1601876Y6433312D01*
X1603857Y6437274D01*
X1605381Y6441440D01*
X1606448Y6445808D01*
X1607108Y6450279D01*
X1607312Y6454902D01*
X1607108Y6459728D01*
X1606448Y6464350D01*
X1605330Y6468770D01*
X1603806Y6472936D01*
X1601876Y6476796D01*
X1599488Y6480403D01*
X1596644Y6483756D01*
X1593392Y6486804D01*
X1589684Y6489496D01*
X1585518Y6491884D01*
X1580946Y6493967D01*
X1575917Y6495694D01*
X1570431Y6497066D01*
X1564538Y6498031D01*
X1558188Y6498640D01*
X1551432Y6498844D01*
G37*
D27*
X1309370Y8827515D02*
G01*
X1257300Y8754871D01*
X1335278Y8754871D01*
X1309370Y8827515D02*
G01*
X1309370Y8718550D01*
X1442212Y8827515D02*
G01*
X1390395Y8718550D01*
X1369568Y8827515D02*
G01*
X1442212Y8827515D01*
X1476502Y8827515D02*
G01*
X1476502Y8718550D01*
X1549400Y8827515D02*
G01*
X1476502Y8754871D01*
X1502410Y8780779D02*
G01*
X1549400Y8718550D01*
X1910079Y8801608D02*
G01*
X1910079Y8806687D01*
X1915413Y8817102D01*
X1920494Y8822436D01*
X1930908Y8827515D01*
X1951736Y8827515D01*
X1962150Y8822436D01*
X1967229Y8817102D01*
X1972563Y8806687D01*
X1972563Y8796274D01*
X1967229Y8785860D01*
X1957070Y8770365D01*
X1905000Y8718550D01*
X1977643Y8718550D01*
X2017268Y8744458D02*
G01*
X2011934Y8739124D01*
X2017268Y8734044D01*
X2022347Y8739124D01*
X2017268Y8744458D01*
X2061972Y8801608D02*
G01*
X2061972Y8806687D01*
X2067052Y8817102D01*
X2072386Y8822436D01*
X2082800Y8827515D01*
X2103374Y8827515D01*
X2113788Y8822436D01*
X2119122Y8817102D01*
X2124202Y8806687D01*
X2124202Y8796274D01*
X2119122Y8785860D01*
X2108708Y8770365D01*
X2056638Y8718550D01*
X2129536Y8718550D01*
X2163825Y8827515D02*
G01*
X2163825Y8718550D01*
X2236470Y8827515D02*
G01*
X2163825Y8754871D01*
X2189734Y8780779D02*
G01*
X2236470Y8718550D01*
X1664970Y8090915D02*
G01*
X1612900Y8018271D01*
X1690878Y8018271D01*
X1664970Y8090915D02*
G01*
X1664970Y7981950D01*
X1730247Y8007858D02*
G01*
X1725168Y8002523D01*
X1730247Y7997444D01*
X1735581Y8002523D01*
X1730247Y8007858D01*
X1842515Y8090915D02*
G01*
X1790700Y7981950D01*
X1769871Y8090915D02*
G01*
X1842515Y8090915D01*
X1876805Y8090915D02*
G01*
X1876805Y7981950D01*
X1949450Y8090915D02*
G01*
X1876805Y8018271D01*
X1902713Y8044179D02*
G01*
X1949450Y7981950D01*
X2953511Y6388100D02*
G01*
X2948177Y6398513D01*
X2932684Y6414007D01*
X3041650Y6414007D01*
X2932684Y6448297D02*
G01*
X3041650Y6448297D01*
X2932684Y6521195D02*
G01*
X3005327Y6448297D01*
X2979420Y6474460D02*
G01*
X3041650Y6521195D01*
X5076443Y8383015D02*
G01*
X5024627Y8274050D01*
X5003800Y8383015D02*
G01*
X5076443Y8383015D01*
X5136895Y8383015D02*
G01*
X5121147Y8377936D01*
X5116068Y8367521D01*
X5116068Y8357108D01*
X5121147Y8346694D01*
X5131561Y8341360D01*
X5152390Y8336279D01*
X5167884Y8331200D01*
X5178297Y8320786D01*
X5183631Y8310371D01*
X5183631Y8294623D01*
X5178297Y8284210D01*
X5173218Y8279129D01*
X5157470Y8274050D01*
X5136895Y8274050D01*
X5121147Y8279129D01*
X5116068Y8284210D01*
X5110734Y8294623D01*
X5110734Y8310371D01*
X5116068Y8320786D01*
X5126481Y8331200D01*
X5141975Y8336279D01*
X5162804Y8341360D01*
X5173218Y8346694D01*
X5178297Y8357108D01*
X5178297Y8367521D01*
X5173218Y8377936D01*
X5157470Y8383015D01*
X5136895Y8383015D01*
X5217922Y8383015D02*
G01*
X5217922Y8274050D01*
X5217922Y8383015D02*
G01*
X5259324Y8274050D01*
X5300979Y8383015D02*
G01*
X5259324Y8274050D01*
X5300979Y8383015D02*
G01*
X5300979Y8274050D01*
X5335270Y8362187D02*
G01*
X5345684Y8367521D01*
X5361177Y8383015D01*
X5361177Y8274050D01*
X5400802Y8357108D02*
G01*
X5400802Y8362187D01*
X5405881Y8372602D01*
X5411215Y8377936D01*
X5421629Y8383015D01*
X5442204Y8383015D01*
X5452618Y8377936D01*
X5457952Y8372602D01*
X5463031Y8362187D01*
X5463031Y8351773D01*
X5457952Y8341360D01*
X5447538Y8325865D01*
X5395468Y8274050D01*
X5468365Y8274050D01*
X3618991Y6393179D02*
G01*
X3613911Y6393179D01*
X3603497Y6398513D01*
X3598163Y6403594D01*
X3593084Y6414007D01*
X3593084Y6434836D01*
X3598163Y6445250D01*
X3603497Y6450329D01*
X3613911Y6455663D01*
X3624325Y6455663D01*
X3634740Y6450329D01*
X3650234Y6440170D01*
X3702050Y6388100D01*
X3702050Y6460744D01*
X3618991Y6500368D02*
G01*
X3613911Y6500368D01*
X3603497Y6505447D01*
X3598163Y6510781D01*
X3593084Y6521195D01*
X3593084Y6541770D01*
X3598163Y6552184D01*
X3603497Y6557518D01*
X3613911Y6562597D01*
X3624325Y6562597D01*
X3634740Y6557518D01*
X3650234Y6547104D01*
X3702050Y6495034D01*
X3702050Y6567931D01*
X3593084Y6633210D02*
G01*
X3598163Y6617715D01*
X3613911Y6607302D01*
X3639820Y6602221D01*
X3655313Y6602221D01*
X3681475Y6607302D01*
X3696970Y6617715D01*
X3702050Y6633210D01*
X3702050Y6643623D01*
X3696970Y6659371D01*
X3681475Y6669786D01*
X3655313Y6674865D01*
X3639820Y6674865D01*
X3613911Y6669786D01*
X3598163Y6659371D01*
X3593084Y6643623D01*
X3593084Y6633210D01*
X3123691Y6393179D02*
G01*
X3118611Y6393179D01*
X3108197Y6398513D01*
X3102863Y6403594D01*
X3097784Y6414007D01*
X3097784Y6434836D01*
X3102863Y6445250D01*
X3108197Y6450329D01*
X3118611Y6455663D01*
X3129025Y6455663D01*
X3139440Y6450329D01*
X3154934Y6440170D01*
X3206750Y6388100D01*
X3206750Y6460744D01*
X3180841Y6500368D02*
G01*
X3186175Y6495034D01*
X3191256Y6500368D01*
X3186175Y6505447D01*
X3180841Y6500368D01*
X3123691Y6545071D02*
G01*
X3118611Y6545071D01*
X3108197Y6550152D01*
X3102863Y6555486D01*
X3097784Y6565900D01*
X3097784Y6586473D01*
X3102863Y6596887D01*
X3108197Y6602221D01*
X3118611Y6607302D01*
X3129025Y6607302D01*
X3139440Y6602221D01*
X3154934Y6591808D01*
X3206750Y6539737D01*
X3206750Y6612636D01*
X3097784Y6646926D02*
G01*
X3206750Y6646926D01*
X3097784Y6719570D02*
G01*
X3170427Y6646926D01*
X3144520Y6672834D02*
G01*
X3206750Y6719570D01*
X3606291Y7498079D02*
G01*
X3601211Y7498079D01*
X3590797Y7503413D01*
X3585463Y7508494D01*
X3580384Y7518908D01*
X3580384Y7539736D01*
X3585463Y7550150D01*
X3590797Y7555229D01*
X3601211Y7560563D01*
X3611625Y7560563D01*
X3622040Y7555229D01*
X3637534Y7545070D01*
X3689350Y7493000D01*
X3689350Y7565644D01*
X3663441Y7605268D02*
G01*
X3668775Y7599934D01*
X3673856Y7605268D01*
X3668775Y7610347D01*
X3663441Y7605268D01*
X3606291Y7649971D02*
G01*
X3601211Y7649971D01*
X3590797Y7655052D01*
X3585463Y7660386D01*
X3580384Y7670800D01*
X3580384Y7691373D01*
X3585463Y7701787D01*
X3590797Y7707121D01*
X3601211Y7712202D01*
X3611625Y7712202D01*
X3622040Y7707121D01*
X3637534Y7696708D01*
X3689350Y7644637D01*
X3689350Y7717536D01*
X3580384Y7751826D02*
G01*
X3689350Y7751826D01*
X3580384Y7824470D02*
G01*
X3653027Y7751826D01*
X3627120Y7777734D02*
G01*
X3689350Y7824470D01*
X5034279Y8026908D02*
G01*
X5034279Y8031987D01*
X5039613Y8042402D01*
X5044693Y8047736D01*
X5055108Y8052815D01*
X5075936Y8052815D01*
X5086350Y8047736D01*
X5091429Y8042402D01*
X5096763Y8031987D01*
X5096763Y8021573D01*
X5091429Y8011160D01*
X5081270Y7995665D01*
X5029200Y7943850D01*
X5101843Y7943850D01*
X5141468Y7969758D02*
G01*
X5136134Y7964423D01*
X5141468Y7959344D01*
X5146547Y7964423D01*
X5141468Y7969758D01*
X5186172Y8026908D02*
G01*
X5186172Y8031987D01*
X5191252Y8042402D01*
X5196586Y8047736D01*
X5207000Y8052815D01*
X5227574Y8052815D01*
X5237988Y8047736D01*
X5243322Y8042402D01*
X5248402Y8031987D01*
X5248402Y8021573D01*
X5243322Y8011160D01*
X5232908Y7995665D01*
X5180838Y7943850D01*
X5253736Y7943850D01*
X5288025Y8052815D02*
G01*
X5288025Y7943850D01*
X5360670Y8052815D02*
G01*
X5288025Y7980171D01*
X5313934Y8006079D02*
G01*
X5360670Y7943850D01*
X4187443Y7516621D02*
G01*
X4177029Y7527036D01*
X4161536Y7532115D01*
X4140708Y7532115D01*
X4125213Y7527036D01*
X4114800Y7516621D01*
X4114800Y7506208D01*
X4119879Y7495794D01*
X4125213Y7490460D01*
X4135627Y7485379D01*
X4166870Y7474965D01*
X4177029Y7469886D01*
X4182363Y7464552D01*
X4187443Y7454137D01*
X4187443Y7438644D01*
X4177029Y7428229D01*
X4161536Y7423150D01*
X4140708Y7423150D01*
X4125213Y7428229D01*
X4114800Y7438644D01*
X4299711Y7506208D02*
G01*
X4294631Y7516621D01*
X4284218Y7527036D01*
X4273804Y7532115D01*
X4252975Y7532115D01*
X4242561Y7527036D01*
X4232147Y7516621D01*
X4227068Y7506208D01*
X4221734Y7490460D01*
X4221734Y7464552D01*
X4227068Y7449058D01*
X4232147Y7438644D01*
X4242561Y7428229D01*
X4252975Y7423150D01*
X4273804Y7423150D01*
X4284218Y7428229D01*
X4294631Y7438644D01*
X4299711Y7449058D01*
X4299711Y7464552D01*
X4273804Y7464552D02*
G01*
X4299711Y7464552D01*
X4344415Y7532115D02*
G01*
X4401565Y7532115D01*
X4370324Y7490460D01*
X4386072Y7490460D01*
X4396486Y7485379D01*
X4401565Y7480300D01*
X4406900Y7464552D01*
X4406900Y7454137D01*
X4401565Y7438644D01*
X4391152Y7428229D01*
X4375658Y7423150D01*
X4359909Y7423150D01*
X4344415Y7428229D01*
X4339336Y7433310D01*
X4334002Y7443723D01*
X4503420Y7532115D02*
G01*
X4451350Y7532115D01*
X4446270Y7485379D01*
X4451350Y7490460D01*
X4467097Y7495794D01*
X4482591Y7495794D01*
X4498340Y7490460D01*
X4508500Y7480300D01*
X4513834Y7464552D01*
X4513834Y7454137D01*
X4508500Y7438644D01*
X4498340Y7428229D01*
X4482591Y7423150D01*
X4467097Y7423150D01*
X4451350Y7428229D01*
X4446270Y7433310D01*
X4441190Y7443723D01*
X4553204Y7506208D02*
G01*
X4553204Y7511287D01*
X4558538Y7521702D01*
X4563618Y7527036D01*
X4574031Y7532115D01*
X4594859Y7532115D01*
X4605274Y7527036D01*
X4610354Y7521702D01*
X4615688Y7511287D01*
X4615688Y7500873D01*
X4610354Y7490460D01*
X4599940Y7474965D01*
X4548124Y7423150D01*
X4620768Y7423150D01*
X4717541Y7532115D02*
G01*
X4665472Y7532115D01*
X4660391Y7485379D01*
X4665472Y7490460D01*
X4681220Y7495794D01*
X4696713Y7495794D01*
X4712208Y7490460D01*
X4722622Y7480300D01*
X4727956Y7464552D01*
X4727956Y7454137D01*
X4722622Y7438644D01*
X4712208Y7428229D01*
X4696713Y7423150D01*
X4681220Y7423150D01*
X4665472Y7428229D01*
X4660391Y7433310D01*
X4655058Y7443723D01*
X4803647Y7532115D02*
G01*
X4762245Y7423150D01*
X4803647Y7532115D02*
G01*
X4845304Y7423150D01*
X4777740Y7459471D02*
G01*
X4829809Y7459471D01*
X4879593Y7532115D02*
G01*
X4879593Y7423150D01*
X4879593Y7532115D02*
G01*
X4926329Y7532115D01*
X4941824Y7527036D01*
X4947158Y7521702D01*
X4952238Y7511287D01*
X4952238Y7495794D01*
X4947158Y7485379D01*
X4941824Y7480300D01*
X4926329Y7474965D01*
X4879593Y7474965D01*
X5366511Y8737600D02*
G01*
X5361177Y8748013D01*
X5345684Y8763508D01*
X5454650Y8763508D01*
X5382006Y8797797D02*
G01*
X5434075Y8797797D01*
X5449570Y8803131D01*
X5454650Y8813545D01*
X5454650Y8829039D01*
X5449570Y8839454D01*
X5434075Y8854947D01*
X5382006Y8854947D02*
G01*
X5454650Y8854947D01*
X5345684Y8889237D02*
G01*
X5454650Y8889237D01*
X5345684Y8889237D02*
G01*
X5345684Y8956802D01*
X5397500Y8889237D02*
G01*
X5397500Y8930894D01*
X5811011Y7454900D02*
G01*
X5805677Y7465313D01*
X5790184Y7480808D01*
X5899150Y7480808D01*
X5790184Y7546339D02*
G01*
X5795263Y7530845D01*
X5811011Y7520431D01*
X5836920Y7515097D01*
X5852413Y7515097D01*
X5878575Y7520431D01*
X5894070Y7530845D01*
X5899150Y7546339D01*
X5899150Y7556754D01*
X5894070Y7572247D01*
X5878575Y7582662D01*
X5852413Y7587995D01*
X5836920Y7587995D01*
X5811011Y7582662D01*
X5795263Y7572247D01*
X5790184Y7556754D01*
X5790184Y7546339D01*
X5790184Y7653273D02*
G01*
X5795263Y7637779D01*
X5811011Y7627365D01*
X5836920Y7622286D01*
X5852413Y7622286D01*
X5878575Y7627365D01*
X5894070Y7637779D01*
X5899150Y7653273D01*
X5899150Y7663687D01*
X5894070Y7679436D01*
X5878575Y7689850D01*
X5852413Y7694929D01*
X5836920Y7694929D01*
X5811011Y7689850D01*
X5795263Y7679436D01*
X5790184Y7663687D01*
X5790184Y7653273D01*
X5826506Y7729220D02*
G01*
X5878575Y7729220D01*
X5894070Y7734300D01*
X5899150Y7744713D01*
X5899150Y7760462D01*
X5894070Y7770876D01*
X5878575Y7786370D01*
X5826506Y7786370D02*
G01*
X5899150Y7786370D01*
X5790184Y7820660D02*
G01*
X5899150Y7820660D01*
X5790184Y7820660D02*
G01*
X5790184Y7888223D01*
X5842000Y7820660D02*
G01*
X5842000Y7862315D01*
X2640584Y6794500D02*
G01*
X2749550Y6794500D01*
X2640584Y6794500D02*
G01*
X2640584Y6841236D01*
X2645663Y6856729D01*
X2650997Y6862063D01*
X2661411Y6867144D01*
X2676906Y6867144D01*
X2687320Y6862063D01*
X2692400Y6856729D01*
X2697734Y6841236D01*
X2697734Y6794500D01*
X2666491Y6979412D02*
G01*
X2656077Y6974331D01*
X2645663Y6963918D01*
X2640584Y6953504D01*
X2640584Y6932676D01*
X2645663Y6922262D01*
X2656077Y6911847D01*
X2666491Y6906768D01*
X2682240Y6901434D01*
X2708147Y6901434D01*
X2723641Y6906768D01*
X2734056Y6911847D01*
X2744470Y6922262D01*
X2749550Y6932676D01*
X2749550Y6953504D01*
X2744470Y6963918D01*
X2734056Y6974331D01*
X2723641Y6979412D01*
X2640584Y7039610D02*
G01*
X2645663Y7024115D01*
X2656077Y7019036D01*
X2666491Y7019036D01*
X2676906Y7024115D01*
X2682240Y7034529D01*
X2687320Y7055358D01*
X2692400Y7070852D01*
X2702813Y7081265D01*
X2713227Y7086600D01*
X2728975Y7086600D01*
X2739390Y7081265D01*
X2744470Y7076186D01*
X2749550Y7060437D01*
X2749550Y7039610D01*
X2744470Y7024115D01*
X2739390Y7019036D01*
X2728975Y7013702D01*
X2713227Y7013702D01*
X2702813Y7019036D01*
X2692400Y7029450D01*
X2687320Y7044944D01*
X2682240Y7065771D01*
X2676906Y7076186D01*
X2666491Y7081265D01*
X2656077Y7081265D01*
X2645663Y7076186D01*
X2640584Y7060437D01*
X2640584Y7039610D01*
X2661411Y7120889D02*
G01*
X2656077Y7131050D01*
X2640584Y7146797D01*
X2749550Y7146797D01*
X2640584Y7253731D02*
G01*
X2749550Y7201915D01*
X2640584Y7181087D02*
G01*
X2640584Y7253731D01*
X2656077Y7360920D02*
G01*
X2645663Y7350505D01*
X2640584Y7334758D01*
X2640584Y7313929D01*
X2645663Y7298436D01*
X2656077Y7288021D01*
X2666491Y7288021D01*
X2676906Y7293355D01*
X2682240Y7298436D01*
X2687320Y7308850D01*
X2697734Y7340092D01*
X2702813Y7350505D01*
X2708147Y7355586D01*
X2718561Y7360920D01*
X2734056Y7360920D01*
X2744470Y7350505D01*
X2749550Y7334758D01*
X2749550Y7313929D01*
X2744470Y7298436D01*
X2734056Y7288021D01*
X2081022Y7341615D02*
G01*
X2081022Y7232650D01*
X2044700Y7341615D02*
G01*
X2117343Y7341615D01*
X2151634Y7341615D02*
G01*
X2151634Y7232650D01*
X2151634Y7232650D02*
G01*
X2214118Y7232650D01*
X2300224Y7341615D02*
G01*
X2248408Y7268971D01*
X2326386Y7268971D01*
X2300224Y7341615D02*
G01*
X2300224Y7232650D01*
X2371090Y7341615D02*
G01*
X2428240Y7341615D01*
X2396997Y7299960D01*
X2412491Y7299960D01*
X2422906Y7294879D01*
X2428240Y7289800D01*
X2433320Y7274052D01*
X2433320Y7263637D01*
X2428240Y7248144D01*
X2417825Y7237729D01*
X2402077Y7232650D01*
X2386584Y7232650D01*
X2371090Y7237729D01*
X2365756Y7242810D01*
X2360675Y7253223D01*
X2467609Y7320787D02*
G01*
X2478024Y7326121D01*
X2493518Y7341615D01*
X2493518Y7232650D01*
X5811011Y6756400D02*
G01*
X5805677Y6766813D01*
X5790184Y6782308D01*
X5899150Y6782308D01*
X5790184Y6847839D02*
G01*
X5795263Y6832345D01*
X5811011Y6821931D01*
X5836920Y6816597D01*
X5852413Y6816597D01*
X5878575Y6821931D01*
X5894070Y6832345D01*
X5899150Y6847839D01*
X5899150Y6858254D01*
X5894070Y6873747D01*
X5878575Y6884162D01*
X5852413Y6889495D01*
X5836920Y6889495D01*
X5811011Y6884162D01*
X5795263Y6873747D01*
X5790184Y6858254D01*
X5790184Y6847839D01*
X5790184Y6954773D02*
G01*
X5795263Y6939279D01*
X5811011Y6928865D01*
X5836920Y6923786D01*
X5852413Y6923786D01*
X5878575Y6928865D01*
X5894070Y6939279D01*
X5899150Y6954773D01*
X5899150Y6965187D01*
X5894070Y6980936D01*
X5878575Y6991350D01*
X5852413Y6996429D01*
X5836920Y6996429D01*
X5811011Y6991350D01*
X5795263Y6980936D01*
X5790184Y6965187D01*
X5790184Y6954773D01*
X5826506Y7030720D02*
G01*
X5878575Y7030720D01*
X5894070Y7035800D01*
X5899150Y7046213D01*
X5899150Y7061962D01*
X5894070Y7072376D01*
X5878575Y7087870D01*
X5826506Y7087870D02*
G01*
X5899150Y7087870D01*
X5790184Y7122160D02*
G01*
X5899150Y7122160D01*
X5790184Y7122160D02*
G01*
X5790184Y7189723D01*
X5842000Y7122160D02*
G01*
X5842000Y7163815D01*
X3670300Y9170415D02*
G01*
X3670300Y9061450D01*
X3742943Y9170415D02*
G01*
X3742943Y9061450D01*
X3670300Y9118600D02*
G01*
X3742943Y9118600D01*
X3777234Y9149587D02*
G01*
X3787647Y9154921D01*
X3803395Y9170415D01*
X3803395Y9061450D01*
X1179065Y9163050D02*
G01*
X1179065Y9054084D01*
X1251709Y9163050D02*
G01*
X1251709Y9054084D01*
X1179065Y9111234D02*
G01*
X1251709Y9111234D01*
X1291333Y9137142D02*
G01*
X1291333Y9142221D01*
X1296413Y9152636D01*
X1301747Y9157970D01*
X1312161Y9163050D01*
X1332735Y9163050D01*
X1343149Y9157970D01*
X1348483Y9152636D01*
X1353563Y9142221D01*
X1353563Y9131808D01*
X1348483Y9121394D01*
X1338069Y9105900D01*
X1285999Y9054084D01*
X1358897Y9054084D01*
X5816600Y9086087D02*
G01*
X5827013Y9091421D01*
X5842508Y9106915D01*
X5842508Y8997950D01*
X5908040Y9106915D02*
G01*
X5892545Y9101836D01*
X5882131Y9086087D01*
X5876797Y9060179D01*
X5876797Y9044686D01*
X5882131Y9018524D01*
X5892545Y9003029D01*
X5908040Y8997950D01*
X5918454Y8997950D01*
X5933947Y9003029D01*
X5944361Y9018524D01*
X5949695Y9044686D01*
X5949695Y9060179D01*
X5944361Y9086087D01*
X5933947Y9101836D01*
X5918454Y9106915D01*
X5908040Y9106915D01*
X6014974Y9106915D02*
G01*
X5999479Y9101836D01*
X5989065Y9086087D01*
X5983986Y9060179D01*
X5983986Y9044686D01*
X5989065Y9018524D01*
X5999479Y9003029D01*
X6014974Y8997950D01*
X6025388Y8997950D01*
X6041136Y9003029D01*
X6051550Y9018524D01*
X6056629Y9044686D01*
X6056629Y9060179D01*
X6051550Y9086087D01*
X6041136Y9101836D01*
X6025388Y9106915D01*
X6014974Y9106915D01*
X6090920Y9070594D02*
G01*
X6090920Y8997950D01*
X6090920Y9049765D02*
G01*
X6106413Y9065260D01*
X6116827Y9070594D01*
X6132575Y9070594D01*
X6142990Y9065260D01*
X6148070Y9049765D01*
X6148070Y8997950D01*
X6182359Y9106915D02*
G01*
X6182359Y8997950D01*
X6182359Y9106915D02*
G01*
X6249924Y9106915D01*
X6182359Y9055100D02*
G01*
X6224015Y9055100D01*
X3276091Y6393179D02*
G01*
X3271011Y6393179D01*
X3260597Y6398513D01*
X3255263Y6403594D01*
X3250184Y6414007D01*
X3250184Y6434836D01*
X3255263Y6445250D01*
X3260597Y6450329D01*
X3271011Y6455663D01*
X3281425Y6455663D01*
X3291840Y6450329D01*
X3307334Y6440170D01*
X3359150Y6388100D01*
X3359150Y6460744D01*
X3333241Y6500368D02*
G01*
X3338575Y6495034D01*
X3343656Y6500368D01*
X3338575Y6505447D01*
X3333241Y6500368D01*
X3276091Y6545071D02*
G01*
X3271011Y6545071D01*
X3260597Y6550152D01*
X3255263Y6555486D01*
X3250184Y6565900D01*
X3250184Y6586473D01*
X3255263Y6596887D01*
X3260597Y6602221D01*
X3271011Y6607302D01*
X3281425Y6607302D01*
X3291840Y6602221D01*
X3307334Y6591808D01*
X3359150Y6539737D01*
X3359150Y6612636D01*
X3286506Y6646926D02*
G01*
X3359150Y6646926D01*
X3307334Y6646926D02*
G01*
X3291840Y6662420D01*
X3286506Y6672834D01*
X3286506Y6688328D01*
X3291840Y6698742D01*
X3307334Y6704076D01*
X3359150Y6704076D01*
X3250184Y6738365D02*
G01*
X3359150Y6738365D01*
X3250184Y6738365D02*
G01*
X3250184Y6805929D01*
X3302000Y6738365D02*
G01*
X3302000Y6779768D01*
X2160270Y7113015D02*
G01*
X2108200Y7040371D01*
X2186177Y7040371D01*
X2160270Y7113015D02*
G01*
X2160270Y7004050D01*
X2225547Y7029958D02*
G01*
X2220468Y7024623D01*
X2225547Y7019544D01*
X2230881Y7024623D01*
X2225547Y7029958D01*
X2337815Y7113015D02*
G01*
X2286000Y7004050D01*
X2265172Y7113015D02*
G01*
X2337815Y7113015D01*
X2372106Y7076694D02*
G01*
X2372106Y7004050D01*
X2372106Y7055865D02*
G01*
X2387600Y7071360D01*
X2398013Y7076694D01*
X2413761Y7076694D01*
X2424175Y7071360D01*
X2429256Y7055865D01*
X2429256Y7004050D01*
X2463545Y7113015D02*
G01*
X2463545Y7004050D01*
X2463545Y7113015D02*
G01*
X2531109Y7113015D01*
X2463545Y7061200D02*
G01*
X2505202Y7061200D01*
X5498591Y6316979D02*
G01*
X5493511Y6316979D01*
X5483097Y6322313D01*
X5477763Y6327394D01*
X5472684Y6337807D01*
X5472684Y6358636D01*
X5477763Y6369050D01*
X5483097Y6374129D01*
X5493511Y6379463D01*
X5503925Y6379463D01*
X5514340Y6374129D01*
X5529834Y6363970D01*
X5581650Y6311900D01*
X5581650Y6384544D01*
X5498591Y6424168D02*
G01*
X5493511Y6424168D01*
X5483097Y6429247D01*
X5477763Y6434581D01*
X5472684Y6444995D01*
X5472684Y6465570D01*
X5477763Y6475984D01*
X5483097Y6481318D01*
X5493511Y6486397D01*
X5503925Y6486397D01*
X5514340Y6481318D01*
X5529834Y6470904D01*
X5581650Y6418834D01*
X5581650Y6491731D01*
X5472684Y6557010D02*
G01*
X5477763Y6541515D01*
X5493511Y6531102D01*
X5519420Y6526021D01*
X5534913Y6526021D01*
X5561075Y6531102D01*
X5576570Y6541515D01*
X5581650Y6557010D01*
X5581650Y6567423D01*
X5576570Y6583171D01*
X5561075Y6593586D01*
X5534913Y6598665D01*
X5519420Y6598665D01*
X5493511Y6593586D01*
X5477763Y6583171D01*
X5472684Y6567423D01*
X5472684Y6557010D01*
X5472684Y6632955D02*
G01*
X5581650Y6632955D01*
X5472684Y6705600D02*
G01*
X5545327Y6632955D01*
X5519420Y6658863D02*
G01*
X5581650Y6705600D01*
X3448811Y6388100D02*
G01*
X3443477Y6398513D01*
X3427984Y6414007D01*
X3536950Y6414007D01*
X3427984Y6479539D02*
G01*
X3433063Y6464045D01*
X3448811Y6453631D01*
X3474720Y6448297D01*
X3490213Y6448297D01*
X3516375Y6453631D01*
X3531870Y6464045D01*
X3536950Y6479539D01*
X3536950Y6489954D01*
X3531870Y6505447D01*
X3516375Y6515862D01*
X3490213Y6521195D01*
X3474720Y6521195D01*
X3448811Y6515862D01*
X3433063Y6505447D01*
X3427984Y6489954D01*
X3427984Y6479539D01*
X3427984Y6555486D02*
G01*
X3536950Y6555486D01*
X3427984Y6628129D02*
G01*
X3500627Y6555486D01*
X3474720Y6581394D02*
G01*
X3536950Y6628129D01*
X2120900Y6749287D02*
G01*
X2131313Y6754621D01*
X2146808Y6770115D01*
X2146808Y6661150D01*
X2186431Y6687058D02*
G01*
X2181097Y6681723D01*
X2186431Y6676644D01*
X2191511Y6681723D01*
X2186431Y6687058D01*
X2288286Y6754621D02*
G01*
X2282952Y6765036D01*
X2267458Y6770115D01*
X2257043Y6770115D01*
X2241550Y6765036D01*
X2231136Y6749287D01*
X2225802Y6723379D01*
X2225802Y6697471D01*
X2231136Y6676644D01*
X2241550Y6666229D01*
X2257043Y6661150D01*
X2262124Y6661150D01*
X2277872Y6666229D01*
X2288286Y6676644D01*
X2293365Y6692137D01*
X2293365Y6697471D01*
X2288286Y6712965D01*
X2277872Y6723379D01*
X2262124Y6728460D01*
X2257043Y6728460D01*
X2241550Y6723379D01*
X2231136Y6712965D01*
X2225802Y6697471D01*
X2327656Y6770115D02*
G01*
X2327656Y6661150D01*
X2400300Y6770115D02*
G01*
X2327656Y6697471D01*
X2353563Y6723379D02*
G01*
X2400300Y6661150D01*
X1154429Y8090915D02*
G01*
X1102613Y8090915D01*
X1097279Y8044179D01*
X1102613Y8049260D01*
X1118107Y8054594D01*
X1133855Y8054594D01*
X1149350Y8049260D01*
X1159763Y8039100D01*
X1164844Y8023352D01*
X1164844Y8012937D01*
X1159763Y7997444D01*
X1149350Y7987029D01*
X1133855Y7981950D01*
X1118107Y7981950D01*
X1102613Y7987029D01*
X1097279Y7992110D01*
X1092200Y8002523D01*
X1199134Y8090915D02*
G01*
X1199134Y7981950D01*
X1272031Y8090915D02*
G01*
X1199134Y8018271D01*
X1225295Y8044179D02*
G01*
X1272031Y7981950D01*
X3009900Y8751315D02*
G01*
X3009900Y8642350D01*
X3009900Y8642350D02*
G01*
X3072129Y8642350D01*
X3106420Y8683752D02*
G01*
X3168904Y8683752D01*
X3168904Y8694165D01*
X3163570Y8704579D01*
X3158490Y8709660D01*
X3148075Y8714994D01*
X3132581Y8714994D01*
X3122168Y8709660D01*
X3111754Y8699500D01*
X3106420Y8683752D01*
X3106420Y8673337D01*
X3111754Y8657844D01*
X3122168Y8647429D01*
X3132581Y8642350D01*
X3148075Y8642350D01*
X3158490Y8647429D01*
X3168904Y8657844D01*
X3265424Y8751315D02*
G01*
X3265424Y8642350D01*
X3265424Y8699500D02*
G01*
X3255009Y8709660D01*
X3244850Y8714994D01*
X3229102Y8714994D01*
X3218688Y8709660D01*
X3208274Y8699500D01*
X3203193Y8683752D01*
X3203193Y8673337D01*
X3208274Y8657844D01*
X3218688Y8647429D01*
X3229102Y8642350D01*
X3244850Y8642350D01*
X3255009Y8647429D01*
X3265424Y8657844D01*
G36*
X5930087Y7948117D02*
G01*
X5930087Y7358075D01*
X5980074Y7378090D01*
X6060084Y7418120D01*
X6100114Y7448092D01*
X6120079Y7488123D01*
X6150102Y7518095D01*
X6160109Y7558125D01*
X6170117Y7578090D01*
X5990082Y7578090D01*
X5990082Y7738109D01*
X6170117Y7738109D01*
X6150102Y7798104D01*
X6130086Y7838084D01*
X6100114Y7868107D01*
X6070092Y7888122D01*
X6040120Y7918094D01*
X5990082Y7938109D01*
G37*
G36*
X5930087Y7249617D02*
G01*
X5930087Y6659575D01*
X5980074Y6679590D01*
X6060084Y6719620D01*
X6100114Y6749592D01*
X6120079Y6789623D01*
X6150102Y6819595D01*
X6160109Y6859625D01*
X6170117Y6879590D01*
X5990082Y6879590D01*
X5990082Y7039609D01*
X6170117Y7039609D01*
X6150102Y7099604D01*
X6130086Y7139584D01*
X6100114Y7169607D01*
X6070092Y7189622D01*
X6040120Y7219594D01*
X5990082Y7239609D01*
G37*
G36*
X3044190Y8232292D02*
G01*
X3044190Y8212277D01*
X3204210Y8212277D01*
X3204210Y8232292D01*
G37*
G36*
X3114192Y8282279D02*
G01*
X3114192Y8222284D01*
X3134207Y8222284D01*
X3134207Y8282279D01*
G37*
X1504820Y8401090D02*
G01*
X1640812Y8401090D01*
X1640812Y8616909D01*
X1504820Y8616909D01*
X1314579Y8401090D02*
G01*
X1178587Y8401090D01*
X1178587Y8616909D01*
X1314579Y8616909D01*
D10*
X3882204Y8300100D02*
G01*
X3882204Y8540099D01*
X3532205Y8540099D02*
G01*
X3382205Y8540099D01*
X3532205Y8300100D02*
G01*
X3382205Y8300100D01*
X3732204Y8540099D02*
G01*
X3882204Y8540099D01*
X3732204Y8300100D02*
G01*
X3882204Y8300100D01*
X3382205Y8300100D02*
G01*
X3382205Y8540099D01*
X2282004Y8389000D02*
G01*
X2282004Y8628999D01*
X1932005Y8628999D02*
G01*
X1782005Y8628999D01*
X1932005Y8389000D02*
G01*
X1782005Y8389000D01*
X2132004Y8628999D02*
G01*
X2282004Y8628999D01*
X2132004Y8389000D02*
G01*
X2282004Y8389000D01*
X1782005Y8389000D02*
G01*
X1782005Y8628999D01*
D27*
X5353009Y7486520D02*
G01*
X5353009Y7622512D01*
X5137190Y7622512D01*
X5137190Y7486520D01*
X5353009Y7296279D02*
G01*
X5353009Y7160287D01*
X5137190Y7160287D01*
X5137190Y7296279D01*
X1670179Y7931109D02*
G01*
X1534187Y7931109D01*
X1534187Y7715290D01*
X1670179Y7715290D01*
X1860420Y7931109D02*
G01*
X1996412Y7931109D01*
X1996412Y7715290D01*
X1860420Y7715290D01*
D10*
X3791569Y6353995D02*
G01*
X4031569Y6353995D01*
X4031569Y6703994D02*
G01*
X4031569Y6853994D01*
X3791569Y6703994D02*
G01*
X3791569Y6853994D01*
X4031569Y6503995D02*
G01*
X4031569Y6353995D01*
X3791569Y6503995D02*
G01*
X3791569Y6353995D01*
X3791569Y6853994D02*
G01*
X4031569Y6853994D01*
D27*
X5480461Y8665159D02*
G01*
X5480461Y7995920D01*
X6077204Y7995920D02*
G01*
X5480461Y7995920D01*
X6077204Y8665159D02*
G01*
X5480461Y8665159D01*
D10*
X5379702Y6854004D02*
G01*
X5059697Y6854004D01*
X5059697Y6514007D02*
G01*
X5059697Y6354005D01*
X5379702Y6514007D02*
G01*
X5379702Y6354005D01*
X5059697Y6694002D02*
G01*
X5059697Y6854004D01*
X5379702Y6694002D02*
G01*
X5379702Y6854004D01*
X5379702Y6354005D02*
G01*
X5059697Y6354005D01*
X4109100Y6353995D02*
G01*
X4349099Y6353995D01*
X4349099Y6703994D02*
G01*
X4349099Y6853994D01*
X4109100Y6703994D02*
G01*
X4109100Y6853994D01*
X4349099Y6503995D02*
G01*
X4349099Y6353995D01*
X4109100Y6503995D02*
G01*
X4109100Y6353995D01*
X4109100Y6853994D02*
G01*
X4349099Y6853994D01*
X3394895Y7854299D02*
G01*
X3394895Y7614300D01*
X3744894Y7614300D02*
G01*
X3894894Y7614300D01*
X3744894Y7854299D02*
G01*
X3894894Y7854299D01*
X3544895Y7614300D02*
G01*
X3394895Y7614300D01*
X3544895Y7854299D02*
G01*
X3394895Y7854299D01*
X3894894Y7854299D02*
G01*
X3894894Y7614300D01*
X4410895Y8171799D02*
G01*
X4410895Y7931800D01*
X4760894Y7931800D02*
G01*
X4910894Y7931800D01*
X4760894Y8171799D02*
G01*
X4910894Y8171799D01*
X4560895Y7931800D02*
G01*
X4410895Y7931800D01*
X4560895Y8171799D02*
G01*
X4410895Y8171799D01*
X4910894Y8171799D02*
G01*
X4910894Y7931800D01*
X4003040Y7256779D02*
G01*
X4993386Y7256779D01*
X4993386Y7625079D01*
X3998213Y7625079D01*
X3998213Y7625079D02*
G01*
X3998213Y7500632D01*
X4000500Y7383779D02*
G01*
X4000500Y7256779D01*
X5160197Y8726500D02*
G01*
X5160197Y8926499D01*
X5510199Y8706500D02*
G01*
X5630199Y8706500D01*
X5510199Y8946499D02*
G01*
X5630199Y8946499D01*
X5310197Y8706500D02*
G01*
X5190200Y8706500D01*
X5310197Y8946499D02*
G01*
X5190200Y8946499D01*
X5660199Y8726500D02*
G01*
X5660199Y8926499D01*
X5640199Y8706500D02*
G01*
X5630199Y8706500D01*
X5640199Y8946499D02*
G01*
X5630199Y8946499D01*
X5180197Y8706500D02*
G01*
X5190200Y8706500D01*
X5180197Y8946499D02*
G01*
X5190200Y8946499D01*
X6210300Y7328154D02*
G01*
X5680456Y7328154D01*
X5680456Y7988045D02*
G01*
X6210300Y7988045D01*
X5550408Y7458202D02*
G01*
X5680456Y7328154D01*
X5550408Y7857997D02*
G01*
X5680456Y7988045D01*
X5550408Y7857997D02*
G01*
X5550408Y7731252D01*
X5550408Y7584947D02*
G01*
X5550408Y7458202D01*
X6210300Y7988045D02*
G01*
X6210300Y7731252D01*
X6210300Y7584947D02*
G01*
X6210300Y7328154D01*
X3004700Y7926207D02*
G01*
X3004700Y7466208D01*
X3004698Y7466205D02*
G01*
X2354696Y7466205D01*
X2354696Y7466205D02*
G01*
X2354696Y7926207D01*
X2354696Y7926207D02*
G01*
X2609697Y7926207D01*
X3004700Y7926207D02*
G01*
X2749697Y7926207D01*
X1868398Y7387592D02*
G01*
X1868398Y7321600D01*
X1868398Y7387592D01*
X1868398Y7321600D01*
X1786889Y7321600D01*
X1786889Y7613601D02*
G01*
X1868398Y7613601D01*
X1868398Y7547607D01*
D28*
X1713407Y7497594D02*
G01*
X1713407Y7437605D01*
D10*
X6210300Y6629654D02*
G01*
X5680456Y6629654D01*
X5680456Y7289545D02*
G01*
X6210300Y7289545D01*
X5550408Y6759702D02*
G01*
X5680456Y6629654D01*
X5550408Y7159497D02*
G01*
X5680456Y7289545D01*
X5550408Y7159497D02*
G01*
X5550408Y7032752D01*
X5550408Y6886447D02*
G01*
X5550408Y6759702D01*
X6210300Y7289545D02*
G01*
X6210300Y7032752D01*
X6210300Y6886447D02*
G01*
X6210300Y6629654D01*
D29*
X4102100Y9245600D02*
G01*
X3911600Y9245600D01*
X3911600Y8991600D01*
X5435600Y8991600D01*
X5435600Y9245600D01*
D30*
X5435600Y9245600D02*
G01*
X4102100Y9245600D01*
D10*
X1409700Y9232900D02*
G01*
X1917700Y9232900D01*
X1917700Y8978900D01*
X1409700Y8978900D01*
X1409700Y9232900D01*
X5769797Y8726500D02*
G01*
X5769797Y8926499D01*
X6119799Y8706500D02*
G01*
X6239799Y8706500D01*
X6119799Y8946499D02*
G01*
X6239799Y8946499D01*
X5919797Y8706500D02*
G01*
X5799800Y8706500D01*
X5919797Y8946499D02*
G01*
X5799800Y8946499D01*
X6269799Y8726500D02*
G01*
X6269799Y8926499D01*
X6249799Y8706500D02*
G01*
X6239799Y8706500D01*
X6249799Y8946499D02*
G01*
X6239799Y8946499D01*
X5789797Y8706500D02*
G01*
X5799800Y8706500D01*
X5789797Y8946499D02*
G01*
X5799800Y8946499D01*
X4421200Y6854002D02*
G01*
X4621199Y6854002D01*
X4401200Y6504000D02*
G01*
X4401200Y6384000D01*
X4641199Y6504000D02*
G01*
X4641199Y6384000D01*
X4401200Y6704002D02*
G01*
X4401200Y6823999D01*
X4641199Y6704002D02*
G01*
X4641199Y6823999D01*
X4421200Y6354000D02*
G01*
X4621199Y6354000D01*
X4401200Y6374000D02*
G01*
X4401200Y6384000D01*
X4641199Y6374000D02*
G01*
X4641199Y6384000D01*
X4401200Y6834002D02*
G01*
X4401200Y6823999D01*
X4641199Y6834002D02*
G01*
X4641199Y6823999D01*
X2015302Y7173899D02*
G01*
X2015302Y6973900D01*
X1665300Y7193899D02*
G01*
X1545300Y7193899D01*
X1665300Y6953900D02*
G01*
X1545300Y6953900D01*
X1865302Y7193899D02*
G01*
X1985299Y7193899D01*
X1865302Y6953900D02*
G01*
X1985299Y6953900D01*
X1515300Y7173899D02*
G01*
X1515300Y6973900D01*
X1535300Y7193899D02*
G01*
X1545300Y7193899D01*
X1535300Y6953900D02*
G01*
X1545300Y6953900D01*
X1995302Y7193899D02*
G01*
X1985299Y7193899D01*
X1995302Y6953900D02*
G01*
X1985299Y6953900D01*
X6168204Y6357000D02*
G01*
X6168204Y6596999D01*
X5818205Y6596999D02*
G01*
X5668205Y6596999D01*
X5818205Y6357000D02*
G01*
X5668205Y6357000D01*
X6018204Y6596999D02*
G01*
X6168204Y6596999D01*
X6018204Y6357000D02*
G01*
X6168204Y6357000D01*
X5668205Y6357000D02*
G01*
X5668205Y6596999D01*
X4706000Y6353995D02*
G01*
X4945999Y6353995D01*
X4945999Y6703994D02*
G01*
X4945999Y6853994D01*
X4706000Y6703994D02*
G01*
X4706000Y6853994D01*
X4945999Y6503995D02*
G01*
X4945999Y6353995D01*
X4706000Y6503995D02*
G01*
X4706000Y6353995D01*
X4706000Y6853994D02*
G01*
X4945999Y6853994D01*
X2028004Y6598300D02*
G01*
X2028004Y6838299D01*
X1678005Y6838299D02*
G01*
X1528005Y6838299D01*
X1678005Y6598300D02*
G01*
X1528005Y6598300D01*
X1878004Y6838299D02*
G01*
X2028004Y6838299D01*
X1878004Y6598300D02*
G01*
X2028004Y6598300D01*
X1528005Y6598300D02*
G01*
X1528005Y6838299D01*
X1371600Y7925803D02*
G01*
X1409700Y7925803D01*
X1447800Y7925803D01*
X1409700Y7925803D01*
X1489603Y8120400D02*
G01*
X1489603Y7170399D01*
X1489603Y8120400D02*
G01*
X999596Y8120400D01*
X994600Y8120400D01*
X994600Y8070900D01*
X1044600Y8070900D01*
X1044600Y8070900D01*
X1044600Y7219899D01*
X1044600Y7219899D01*
X994600Y7219899D01*
X994600Y7169866D01*
X999596Y7169866D01*
X1489603Y7169866D01*
X3244212Y8152310D02*
G01*
X3244212Y7992313D01*
X3004212Y8152310D02*
G01*
X3004212Y7992313D01*
X3244212Y8332312D02*
G01*
X3244212Y8482312D01*
X3004212Y8332312D02*
G01*
X3004212Y8482312D01*
X3244212Y7992313D02*
G01*
X3004212Y7992313D01*
X3194212Y8522309D02*
G01*
X3054212Y8522312D01*
X3194212Y8522309D02*
G01*
X3204215Y8522309D01*
X3244212Y8482312D01*
X3054212Y8522312D02*
G01*
X3044212Y8522312D01*
X3004212Y8482312D01*
G75*
G01*
X4000500Y7383780D02*
G03*
X4000792Y7500633I2548J58420D01*
G75*
G01*
X5660199Y8726500D02*
G02*
X5640200Y8706500I-19999J0D01*
G75*
G01*
X5660199Y8926500D02*
G03*
X5640200Y8946500I-19999J0D01*
G75*
G01*
X5160198Y8726500D02*
G03*
X5180198Y8706500I20000J0D01*
G75*
G01*
X5160198Y8926500D02*
G02*
X5180198Y8946500I20000J0D01*
G75*
G01*
X6170099Y7738100D02*
G03*
X5590101Y7738100I-289999J-80004D01*
G75*
G01*
X5590101Y7578100D02*
G03*
X6170099Y7578100I289999J79994D01*
D31*
G75*
G01*
X2199698Y7976207D02*
G03*
X2199952Y7976207I127J-19999D01*
D32*
G75*
G01*
X2479799Y7856228D02*
G03*
X2480307Y7856228I254J-34999D01*
D10*
G75*
G01*
X2749697Y7926207D02*
G02*
X2609596Y7926299I-70050J46D01*
G75*
G01*
X6170099Y7039600D02*
G03*
X5590101Y7039600I-289999J-80004D01*
G75*
G01*
X5590101Y6879600D02*
G03*
X6170099Y6879600I289999J79994D01*
G75*
G01*
X6269799Y8726500D02*
G02*
X6249800Y8706500I-19999J0D01*
G75*
G01*
X6269799Y8926500D02*
G03*
X6249800Y8946500I-19999J0D01*
G75*
G01*
X5769798Y8726500D02*
G03*
X5789798Y8706500I20000J0D01*
G75*
G01*
X5769798Y8926500D02*
G02*
X5789798Y8946500I20000J0D01*
G75*
G01*
X4421200Y6354000D02*
G02*
X4401200Y6374000I0J20000D01*
G75*
G01*
X4621200Y6354000D02*
G03*
X4641200Y6374000I0J20000D01*
G75*
G01*
X4421200Y6854002D02*
G03*
X4401200Y6834002I0J-20000D01*
G75*
G01*
X4621200Y6854002D02*
G02*
X4641200Y6834002I0J-20000D01*
G75*
G01*
X1515300Y7173900D02*
G02*
X1535300Y7193900I20000J0D01*
G75*
G01*
X1515300Y6973900D02*
G03*
X1535300Y6953900I20000J0D01*
G75*
G01*
X2015302Y7173900D02*
G03*
X1995302Y7193900I-20000J0D01*
G75*
G01*
X2015302Y6973900D02*
G02*
X1995302Y6953900I-20000J0D01*
G75*
G01*
X1463548Y7925803D02*
G03*
X1463548Y7924787I-53879J-508D01*
M02*
