G04 Layer: TopPasteMaskLayer*
G04 EasyEDA v6.4.31, 2022-02-13 10:25:38*
G04 2d099072909c4d34a2351a6f0d7baa55,7002fc846d7841648ca5f2fac868b397,10*
G04 Gerber Generator version 0.2*
G04 Scale: 100 percent, Rotated: No, Reflected: No *
G04 Dimensions in millimeters *
G04 leading zeros omitted , absolute positions ,4 integer and 5 decimal *
%FSLAX45Y45*%
%MOMM*%

%ADD11C,0.6000*%
%ADD14R,1.2000X1.9000*%
%ADD16R,1.9000X1.2000*%
%ADD19R,2.7000X1.2000*%
%ADD20R,3.0000X1.0000*%
%ADD21R,2.0000X1.5000*%
%ADD22R,1.2500X0.7000*%
%ADD23R,1.8000X1.5000*%

%LPD*%
G36*
X1507185Y8594039D02*
G01*
X1497177Y8584031D01*
X1497177Y8547912D01*
X1507185Y8537905D01*
X1528267Y8537905D01*
X1538274Y8527897D01*
X1538274Y8490102D01*
X1528267Y8480094D01*
X1507185Y8480094D01*
X1497177Y8470087D01*
X1497177Y8433968D01*
X1507185Y8423960D01*
X1607972Y8423960D01*
X1617929Y8433968D01*
X1617929Y8584031D01*
X1607972Y8594039D01*
G37*
G36*
X1211427Y8594039D02*
G01*
X1201470Y8584031D01*
X1201470Y8433968D01*
X1211427Y8423960D01*
X1312214Y8423960D01*
X1322222Y8433968D01*
X1322222Y8470087D01*
X1312214Y8480094D01*
X1291132Y8480094D01*
X1281125Y8490102D01*
X1281125Y8527897D01*
X1291132Y8537905D01*
X1312214Y8537905D01*
X1322222Y8547912D01*
X1322222Y8584031D01*
X1312214Y8594039D01*
G37*
G36*
X5170068Y7599629D02*
G01*
X5160060Y7589672D01*
X5160060Y7488885D01*
X5170068Y7478877D01*
X5206187Y7478877D01*
X5216194Y7488885D01*
X5216194Y7509967D01*
X5226202Y7519974D01*
X5263997Y7519974D01*
X5274005Y7509967D01*
X5274005Y7488885D01*
X5284012Y7478877D01*
X5320131Y7478877D01*
X5330139Y7488885D01*
X5330139Y7589672D01*
X5320131Y7599629D01*
G37*
G36*
X5170068Y7303922D02*
G01*
X5160060Y7293914D01*
X5160060Y7193127D01*
X5170068Y7183170D01*
X5320131Y7183170D01*
X5330139Y7193127D01*
X5330139Y7293914D01*
X5320131Y7303922D01*
X5284012Y7303922D01*
X5274005Y7293914D01*
X5274005Y7272832D01*
X5263997Y7262825D01*
X5226202Y7262825D01*
X5216194Y7272832D01*
X5216194Y7293914D01*
X5206187Y7303922D01*
G37*
G36*
X1567027Y7908239D02*
G01*
X1557070Y7898231D01*
X1557070Y7748168D01*
X1567027Y7738160D01*
X1667814Y7738160D01*
X1677822Y7748168D01*
X1677822Y7784287D01*
X1667814Y7794294D01*
X1646732Y7794294D01*
X1636725Y7804302D01*
X1636725Y7842097D01*
X1646732Y7852105D01*
X1667814Y7852105D01*
X1677822Y7862112D01*
X1677822Y7898231D01*
X1667814Y7908239D01*
G37*
G36*
X1862785Y7908239D02*
G01*
X1852777Y7898231D01*
X1852777Y7862112D01*
X1862785Y7852105D01*
X1883867Y7852105D01*
X1893874Y7842097D01*
X1893874Y7804302D01*
X1883867Y7794294D01*
X1862785Y7794294D01*
X1852777Y7784287D01*
X1852777Y7748168D01*
X1862785Y7738160D01*
X1963572Y7738160D01*
X1973529Y7748168D01*
X1973529Y7898231D01*
X1963572Y7908239D01*
G37*
D11*
X4940300Y7679380D02*
G01*
X4940300Y7799379D01*
X4813300Y7679380D02*
G01*
X4813300Y7799379D01*
X4686300Y7679380D02*
G01*
X4686300Y7799379D01*
X4559300Y7679380D02*
G01*
X4559300Y7799379D01*
X4432300Y7679380D02*
G01*
X4432300Y7799379D01*
X4305300Y7679380D02*
G01*
X4305300Y7799379D01*
X4178300Y7679380D02*
G01*
X4178300Y7799379D01*
X4051300Y7679380D02*
G01*
X4051300Y7799379D01*
X4940300Y7085020D02*
G01*
X4940300Y7205019D01*
X4813300Y7085020D02*
G01*
X4813300Y7205019D01*
X4686300Y7085020D02*
G01*
X4686300Y7205019D01*
X4559300Y7085020D02*
G01*
X4559300Y7205019D01*
X4432300Y7085020D02*
G01*
X4432300Y7205019D01*
X4305300Y7085020D02*
G01*
X4305300Y7205019D01*
X4178300Y7085020D02*
G01*
X4178300Y7205019D01*
X4051300Y7085020D02*
G01*
X4051300Y7205019D01*
D14*
G01*
X3472205Y8420100D03*
G01*
X3792194Y8420100D03*
G01*
X1872005Y8509000D03*
G01*
X2191994Y8509000D03*
D16*
G01*
X3911574Y6763994D03*
G01*
X3911574Y6443979D03*
G36*
X5630283Y8631199D02*
G01*
X6280284Y8631199D01*
X6280284Y8031200D01*
X5630283Y8031200D01*
G37*
G36*
X5160980Y8623480D02*
G01*
X5440979Y8623480D01*
X5440979Y8493478D01*
X5160980Y8493478D01*
G37*
G36*
X5156916Y8168921D02*
G01*
X5436915Y8168921D01*
X5436915Y8038919D01*
X5156916Y8038919D01*
G37*
D19*
G01*
X5219700Y6443979D03*
G01*
X5219700Y6763994D03*
D16*
G01*
X4229100Y6763994D03*
G01*
X4229100Y6443979D03*
G36*
X3744907Y7829301D02*
G01*
X3864907Y7829301D01*
X3864907Y7639298D01*
X3744907Y7639298D01*
G37*
G36*
X3424892Y7829301D02*
G01*
X3544892Y7829301D01*
X3544892Y7639298D01*
X3424892Y7639298D01*
G37*
G36*
X4760907Y8146801D02*
G01*
X4880907Y8146801D01*
X4880907Y7956798D01*
X4760907Y7956798D01*
G37*
G36*
X4440892Y8146801D02*
G01*
X4560892Y8146801D01*
X4560892Y7956798D01*
X4440892Y7956798D01*
G37*
D14*
G01*
X5570194Y8826500D03*
G01*
X5250179Y8826500D03*
D20*
G01*
X5600090Y7658100D03*
G01*
X6160109Y7658100D03*
D21*
G01*
X2214702Y7823200D03*
G01*
X2214702Y7569200D03*
G01*
X3144697Y7569200D03*
G01*
X3144697Y7823200D03*
D22*
G01*
X1928368Y7467600D03*
G01*
X1678431Y7372604D03*
G01*
X1678431Y7562595D03*
D20*
G01*
X5600090Y6959600D03*
G01*
X6160109Y6959600D03*
D14*
G01*
X6179794Y8826500D03*
G01*
X5859779Y8826500D03*
D16*
G01*
X4521200Y6444005D03*
G01*
X4521200Y6764020D03*
G36*
X1545300Y7168901D02*
G01*
X1665300Y7168901D01*
X1665300Y6978898D01*
X1545300Y6978898D01*
G37*
G36*
X1865315Y7168901D02*
G01*
X1985314Y7168901D01*
X1985314Y6978898D01*
X1865315Y6978898D01*
G37*
D14*
G01*
X5758205Y6477000D03*
G01*
X6078194Y6477000D03*
D16*
G01*
X4826000Y6763994D03*
G01*
X4826000Y6443979D03*
D14*
G01*
X1618005Y6718300D03*
G01*
X1938020Y6718300D03*
D23*
G01*
X3124225Y8092287D03*
G01*
X3124225Y8392287D03*
M02*
