G04 Layer: TopSolderMaskLayer*
G04 EasyEDA v6.4.31, 2022-02-13 10:25:38*
G04 2d099072909c4d34a2351a6f0d7baa55,7002fc846d7841648ca5f2fac868b397,10*
G04 Gerber Generator version 0.2*
G04 Scale: 100 percent, Rotated: No, Reflected: No *
G04 Dimensions in millimeters *
G04 leading zeros omitted , absolute positions ,4 integer and 5 decimal *
%FSLAX45Y45*%
%MOMM*%

%ADD33C,0.8032*%
%ADD44C,1.9016*%
%ADD46C,1.6256*%

%LPD*%
D33*
X4940300Y7679380D02*
G01*
X4940300Y7799379D01*
X4813300Y7679380D02*
G01*
X4813300Y7799379D01*
X4686300Y7679380D02*
G01*
X4686300Y7799379D01*
X4559300Y7679380D02*
G01*
X4559300Y7799379D01*
X4432300Y7679380D02*
G01*
X4432300Y7799379D01*
X4305300Y7679380D02*
G01*
X4305300Y7799379D01*
X4178300Y7679380D02*
G01*
X4178300Y7799379D01*
X4051300Y7679380D02*
G01*
X4051300Y7799379D01*
X4940300Y7085020D02*
G01*
X4940300Y7205019D01*
X4813300Y7085020D02*
G01*
X4813300Y7205019D01*
X4686300Y7085020D02*
G01*
X4686300Y7205019D01*
X4559300Y7085020D02*
G01*
X4559300Y7205019D01*
X4432300Y7085020D02*
G01*
X4432300Y7205019D01*
X4305300Y7085020D02*
G01*
X4305300Y7205019D01*
X4178300Y7085020D02*
G01*
X4178300Y7205019D01*
X4051300Y7085020D02*
G01*
X4051300Y7205019D01*
G36*
X1491995Y8418829D02*
G01*
X1491995Y8599170D01*
X1623060Y8599170D01*
X1623060Y8418829D01*
G37*
G36*
X1196339Y8418829D02*
G01*
X1196339Y8599170D01*
X1327404Y8599170D01*
X1327404Y8418829D01*
G37*
G36*
X3402075Y8314944D02*
G01*
X3402075Y8525255D01*
X3542284Y8525255D01*
X3542284Y8314944D01*
G37*
G36*
X3722115Y8314944D02*
G01*
X3722115Y8525255D01*
X3862324Y8525255D01*
X3862324Y8314944D01*
G37*
G36*
X1801876Y8403844D02*
G01*
X1801876Y8614155D01*
X1942084Y8614155D01*
X1942084Y8403844D01*
G37*
G36*
X2121915Y8403844D02*
G01*
X2121915Y8614155D01*
X2262124Y8614155D01*
X2262124Y8403844D01*
G37*
G36*
X5154929Y7473695D02*
G01*
X5154929Y7604760D01*
X5335270Y7604760D01*
X5335270Y7473695D01*
G37*
G36*
X5154929Y7178039D02*
G01*
X5154929Y7309104D01*
X5335270Y7309104D01*
X5335270Y7178039D01*
G37*
G36*
X1551939Y7733029D02*
G01*
X1551939Y7913370D01*
X1683004Y7913370D01*
X1683004Y7733029D01*
G37*
G36*
X1847595Y7733029D02*
G01*
X1847595Y7913370D01*
X1978659Y7913370D01*
X1978659Y7733029D01*
G37*
G36*
X3806443Y6693915D02*
G01*
X3806443Y6834123D01*
X4016756Y6834123D01*
X4016756Y6693915D01*
G37*
G36*
X3806443Y6373876D02*
G01*
X3806443Y6514084D01*
X4016756Y6514084D01*
X4016756Y6373876D01*
G37*
G36*
X5625084Y8026145D02*
G01*
X5625084Y8636254D01*
X6285484Y8636254D01*
X6285484Y8026145D01*
G37*
G36*
X5155945Y8488426D02*
G01*
X5155945Y8628634D01*
X5446013Y8628634D01*
X5446013Y8488426D01*
G37*
G36*
X5151881Y8033765D02*
G01*
X5151881Y8173973D01*
X5441950Y8173973D01*
X5441950Y8033765D01*
G37*
G36*
X5074665Y6373876D02*
G01*
X5074665Y6514084D01*
X5364734Y6514084D01*
X5364734Y6373876D01*
G37*
G36*
X5074665Y6693915D02*
G01*
X5074665Y6834123D01*
X5364734Y6834123D01*
X5364734Y6693915D01*
G37*
G36*
X4123943Y6693915D02*
G01*
X4123943Y6834123D01*
X4334256Y6834123D01*
X4334256Y6693915D01*
G37*
G36*
X4123943Y6373876D02*
G01*
X4123943Y6514084D01*
X4334256Y6514084D01*
X4334256Y6373876D01*
G37*
G36*
X3734815Y7629144D02*
G01*
X3734815Y7839455D01*
X3875024Y7839455D01*
X3875024Y7629144D01*
G37*
G36*
X3414775Y7629144D02*
G01*
X3414775Y7839455D01*
X3554984Y7839455D01*
X3554984Y7629144D01*
G37*
G36*
X4750815Y7946644D02*
G01*
X4750815Y8156955D01*
X4891024Y8156955D01*
X4891024Y7946644D01*
G37*
G36*
X4430775Y7946644D02*
G01*
X4430775Y8156955D01*
X4570984Y8156955D01*
X4570984Y7946644D01*
G37*
G36*
X5500115Y8721344D02*
G01*
X5500115Y8931655D01*
X5640324Y8931655D01*
X5640324Y8721344D01*
G37*
G36*
X5180075Y8721344D02*
G01*
X5180075Y8931655D01*
X5320284Y8931655D01*
X5320284Y8721344D01*
G37*
G36*
X5439918Y7597902D02*
G01*
X5439918Y7718297D01*
X5760211Y7718297D01*
X5760211Y7597902D01*
G37*
G36*
X5999988Y7597902D02*
G01*
X5999988Y7718297D01*
X6320281Y7718297D01*
X6320281Y7597902D01*
G37*
G36*
X2109724Y7743189D02*
G01*
X2109724Y7903210D01*
X2319781Y7903210D01*
X2319781Y7743189D01*
G37*
G36*
X2109724Y7489189D02*
G01*
X2109724Y7649210D01*
X2319781Y7649210D01*
X2319781Y7489189D01*
G37*
G36*
X3039618Y7489189D02*
G01*
X3039618Y7649210D01*
X3249675Y7649210D01*
X3249675Y7489189D01*
G37*
G36*
X3039618Y7743189D02*
G01*
X3039618Y7903210D01*
X3249675Y7903210D01*
X3249675Y7743189D01*
G37*
G36*
X1855723Y7422387D02*
G01*
X1855723Y7512812D01*
X2001011Y7512812D01*
X2001011Y7422387D01*
G37*
G36*
X1605787Y7327392D02*
G01*
X1605787Y7417815D01*
X1751076Y7417815D01*
X1751076Y7327392D01*
G37*
G36*
X1605787Y7517384D02*
G01*
X1605787Y7607808D01*
X1751076Y7607808D01*
X1751076Y7517384D01*
G37*
G36*
X5439918Y6899402D02*
G01*
X5439918Y7019797D01*
X5760211Y7019797D01*
X5760211Y6899402D01*
G37*
G36*
X5999988Y6899402D02*
G01*
X5999988Y7019797D01*
X6320281Y7019797D01*
X6320281Y6899402D01*
G37*
D44*
G01*
X5308600Y9118600D03*
G01*
X5054600Y9118600D03*
G01*
X4800600Y9118600D03*
G01*
X4546600Y9118600D03*
G01*
X4292600Y9118600D03*
G36*
X3943604Y9023604D02*
G01*
X3943604Y9213595D01*
X4133595Y9213595D01*
X4133595Y9023604D01*
G37*
G01*
X1790700Y9105900D03*
G36*
X1441704Y9010904D02*
G01*
X1441704Y9200895D01*
X1631695Y9200895D01*
X1631695Y9010904D01*
G37*
G36*
X6109715Y8721344D02*
G01*
X6109715Y8931655D01*
X6249924Y8931655D01*
X6249924Y8721344D01*
G37*
G36*
X5789675Y8721344D02*
G01*
X5789675Y8931655D01*
X5929884Y8931655D01*
X5929884Y8721344D01*
G37*
G36*
X4416043Y6373876D02*
G01*
X4416043Y6514084D01*
X4626356Y6514084D01*
X4626356Y6373876D01*
G37*
G36*
X4416043Y6693915D02*
G01*
X4416043Y6834123D01*
X4626356Y6834123D01*
X4626356Y6693915D01*
G37*
G36*
X1535176Y6968744D02*
G01*
X1535176Y7179055D01*
X1675384Y7179055D01*
X1675384Y6968744D01*
G37*
G36*
X1855215Y6968744D02*
G01*
X1855215Y7179055D01*
X1995424Y7179055D01*
X1995424Y6968744D01*
G37*
G36*
X5688075Y6371844D02*
G01*
X5688075Y6582155D01*
X5828284Y6582155D01*
X5828284Y6371844D01*
G37*
G36*
X6008115Y6371844D02*
G01*
X6008115Y6582155D01*
X6148324Y6582155D01*
X6148324Y6371844D01*
G37*
G36*
X4720843Y6693915D02*
G01*
X4720843Y6834123D01*
X4931156Y6834123D01*
X4931156Y6693915D01*
G37*
G36*
X4720843Y6373876D02*
G01*
X4720843Y6514084D01*
X4931156Y6514084D01*
X4931156Y6373876D01*
G37*
G36*
X1547876Y6613144D02*
G01*
X1547876Y6823455D01*
X1688084Y6823455D01*
X1688084Y6613144D01*
G37*
G36*
X1867915Y6613144D02*
G01*
X1867915Y6823455D01*
X2008124Y6823455D01*
X2008124Y6613144D01*
G37*
D46*
G01*
X1244600Y7645374D03*
G01*
X1244600Y7895386D03*
G01*
X1244600Y7395387D03*
G36*
X3024124Y8007095D02*
G01*
X3024124Y8177529D01*
X3224275Y8177529D01*
X3224275Y8007095D01*
G37*
G36*
X3024124Y8307070D02*
G01*
X3024124Y8477504D01*
X3224275Y8477504D01*
X3224275Y8307070D01*
G37*
M02*
